<?xml version="1.0" standalone="no"?>
<!DOCTYPE svg PUBLIC "-//W3C//DTD SVG 1.1//EN" "http://www.w3.org/Graphics/SVG/1.1/DTD/svg11.dtd" >
<svg xmlns="http://www.w3.org/2000/svg">
<metadata></metadata>
<defs>
<font id="hk_groteskregular" horiz-adv-x="1527" >
<font-face units-per-em="2048" ascent="1434" descent="-614" />
<missing-glyph horiz-adv-x="563" />
<glyph unicode="&#xfb01;" horiz-adv-x="997" d="M39 860v139h147q0 71 12 133.5t39 118.5t68.5 96t104 63.5t141.5 23.5q86 0 166 -28.5t133 -88.5l-82 -121q-49 52 -98 75t-109 23q-219 0 -219 -295h518v-999h-149v860h-369v-860h-158v860h-145z" />
<glyph unicode="&#xfb02;" horiz-adv-x="1011" d="M39 860v139h147v134q0 145 98 223t259 78q167 0 319 -140v-1104q0 -2 1 -6t5 -14.5t9.5 -18t15.5 -14t22 -6.5t28.5 2.5t26.5 4.5l11 3v-141q-64 -20 -121 -20q-149 0 -149 223v1030q-53 61 -162 61q-108 0 -157.5 -40t-49.5 -134v-121h227v-139h-227v-860h-158v860h-145 z" />
<glyph horiz-adv-x="0" />
<glyph horiz-adv-x="682" />
<glyph unicode=" "  horiz-adv-x="563" />
<glyph unicode="&#x09;" horiz-adv-x="563" />
<glyph unicode="&#xa0;" horiz-adv-x="563" />
<glyph unicode="!" horiz-adv-x="548" d="M172 0v203h205v-203h-205zM184 1436h181l-29 -1049h-123z" />
<glyph unicode="&#x22;" horiz-adv-x="708" d="M129 969v444h143v-444h-143zM436 969v444h144v-444h-144z" />
<glyph unicode="#" horiz-adv-x="1478" d="M158 436v119h264l65 324h-247v118h272l94 437h129l-94 -437h311l92 437h130l-93 -437h240v-118h-264l-66 -324h248v-119h-272l-93 -436h-129l93 436h-312l-90 -436h-129l90 436h-239zM551 555h311l66 324h-312z" />
<glyph unicode="$" horiz-adv-x="1097" d="M72 369l164 45q14 -132 107 -202.5t226 -70.5q128 0 202.5 61.5t74.5 182.5q0 69 -37.5 123t-97.5 89t-132.5 66.5t-145 66t-132.5 77t-97.5 110t-37.5 154.5q0 145 92.5 241.5t233.5 117.5v229h118v-227q233 -22 344 -224l-133 -86q-42 79 -112 120.5t-152 41.5 q-91 0 -156 -55.5t-65 -143.5q0 -52 23.5 -94.5t62.5 -72.5t90 -56t107.5 -50t113 -49.5t107.5 -59.5t90 -75t62.5 -100.5t23.5 -132.5q0 -177 -114.5 -288.5t-291.5 -120.5v-232h-118v234q-162 20 -278.5 119t-141.5 262z" />
<glyph unicode="%" d="M102 1116q0 54 12.5 106t39.5 102t77.5 81t118.5 31q82 0 141 -49t85 -119.5t26 -151.5t-25.5 -151t-83 -118t-137.5 -48q-69 0 -121 30.5t-79.5 80t-40.5 101.5t-13 105zM217 1116q0 -51 13 -96.5t45 -78t77 -32.5q43 0 74 33t44 79t13 97q0 82 -34.5 143.5t-98.5 61.5 q-65 0 -99 -62t-34 -145zM309 0l758 1413h141l-757 -1413h-142zM930 317q0 54 12.5 106t39.5 102t77.5 81t118.5 31q82 0 141 -49t85 -119.5t26 -151.5t-25.5 -151t-83 -118t-137.5 -48q-69 0 -121 30.5t-79.5 80t-40.5 101.5t-13 105zM1044 317q0 -82 35 -144t103 -62 q43 0 73 33t43 78.5t13 96.5q0 52 -13 97t-44 76.5t-76 31.5q-65 0 -99.5 -62t-34.5 -145z" />
<glyph unicode="&#x26;" horiz-adv-x="1230" d="M100 324q0 69 36.5 140t88 122t103.5 92.5t88 62.5l37 21q-8 7 -21 19.5t-46 52t-58.5 79.5t-46.5 96.5t-21 108.5q0 142 101.5 227t246.5 85q135 0 230.5 -90t95.5 -222q0 -57 -29 -117t-70 -104.5t-82.5 -81t-70.5 -55.5l-29 -19l281 -329q22 39 40 109t25 121l7 50 l145 -16q-1 -10 -3.5 -27t-12 -66t-21 -94t-32.5 -100t-46 -94l228 -260l-109 -92l-199 229q-96 -103 -204.5 -147.5t-243.5 -44.5q-85 0 -157.5 20t-129 60.5t-89 108t-32.5 155.5zM244 326q0 -56 22 -97t60.5 -63.5t84.5 -32.5t101 -10q215 0 350 156l-325 378 q-12 -7 -31.5 -19.5t-70 -50t-89.5 -75t-70.5 -89.5t-31.5 -97zM403 1116q0 -35 16.5 -76.5t40.5 -76.5t48 -64.5t40 -46.5l17 -16q10 5 25.5 15t56.5 41.5t72 63t56.5 76.5t25.5 86q0 73 -58 122.5t-131 49.5q-86 0 -147.5 -45.5t-61.5 -128.5z" />
<glyph unicode="'" horiz-adv-x="348" d="M102 997v445h144v-445h-144z" />
<glyph unicode="(" horiz-adv-x="630" d="M123 539q0 271 60.5 539t176.5 458h140q-119 -202 -182.5 -468t-63.5 -531t62 -528t182 -468h-136q-108 156 -173.5 449.5t-65.5 548.5z" />
<glyph unicode=")" horiz-adv-x="630" d="M131 1536h139q116 -189 177 -457t61 -538q0 -260 -66 -552t-174 -448h-135q118 201 181 467t63 529q0 264 -65 532t-181 467z" />
<glyph unicode="*" horiz-adv-x="778" d="M82 1151l39 119l227 -96l-31 239h125l-32 -239l229 96l37 -119l-246 -37l172 -194l-100 -72l-123 229l-121 -229l-100 72l172 194z" />
<glyph unicode="+" horiz-adv-x="1261" d="M113 563v123h456v457h123v-457h457v-123h-457v-457h-123v457h-456z" />
<glyph unicode="," horiz-adv-x="460" d="M82 -225l102 489h205l-205 -489h-102z" />
<glyph unicode="-" horiz-adv-x="890" d="M184 610v123h523v-123h-523z" />
<glyph unicode="." horiz-adv-x="413" d="M104 0v203h205v-203h-205z" />
<glyph unicode="/" horiz-adv-x="942" d="M10 -430l758 1946h164l-758 -1946h-164z" />
<glyph unicode="0" horiz-adv-x="1200" d="M82 707q0 100 16 197.5t55 195t96.5 171t148 119.5t202.5 46q103 0 190.5 -41t149 -111.5t105.5 -164.5t64.5 -199.5t20.5 -217.5q0 -110 -20.5 -214t-63 -196.5t-102.5 -161.5t-145 -109.5t-185 -40.5q-116 0 -209 46t-152 119.5t-98.5 171t-56 194.5t-16.5 196z M250 707q0 -78 11 -153.5t37.5 -152t66 -134.5t102.5 -94t141 -36q74 0 134 37t98 95.5t63.5 135.5t36 152.5t10.5 151.5q0 99 -18.5 193t-57 180.5t-109.5 139t-165 52.5t-165 -53t-109.5 -139.5t-57 -181t-18.5 -193.5z" />
<glyph unicode="1" horiz-adv-x="782" d="M76 1073v139h172q80 0 126 47.5t46 124.5v29h158v-1413h-172v1073h-330z" />
<glyph unicode="2" horiz-adv-x="1142" d="M72 0v150q11 7 30 19.5t76.5 53t113 83t128.5 105.5t133 124q266 270 266 477q0 124 -61.5 200t-184.5 76q-73 0 -128.5 -31t-86.5 -83.5t-47 -110t-18 -121.5l-166 14q0 92 31.5 177.5t87.5 152t140.5 106.5t184.5 40q186 0 303 -114t117 -300q0 -264 -334 -594 q-76 -74 -161 -143t-132 -101l-47 -33h744v-147h-989z" />
<glyph unicode="3" horiz-adv-x="1138" d="M61 406l160 14q0 -134 94 -211.5t230 -77.5q85 0 157 30.5t119 95t47 151.5q0 130 -87 198t-218 68h-102v151h102q103 0 165.5 59.5t62.5 164.5t-72.5 168t-177.5 63q-108 0 -180.5 -66t-73.5 -176l-158 17q0 175 118 277t294 102q112 0 204.5 -43t149.5 -128t57 -198 q0 -93 -42 -173.5t-119 -129.5q117 -43 175.5 -136.5t61.5 -219.5q0 -138 -66.5 -236t-174 -144t-242.5 -46t-242.5 46t-174.5 144t-67 236z" />
<glyph unicode="4" horiz-adv-x="1159" d="M51 373v98l670 942h151v-891h226v-149h-226v-373h-167v373h-654zM256 522h449v631z" />
<glyph unicode="5" horiz-adv-x="1148" d="M121 377l153 49q12 -56 34 -104.5t58.5 -94.5t94 -73t129.5 -27q87 0 157.5 50t107 126.5t36.5 159.5q0 133 -81 227t-220 94q-81 0 -156.5 -40t-118.5 -109l-147 61l125 717h711v-151h-580l-72 -431q127 99 275 99q117 0 218.5 -63t161.5 -171t60 -235 q0 -126 -64.5 -237t-175 -177.5t-237.5 -66.5q-170 0 -301.5 114t-167.5 283z" />
<glyph unicode="6" horiz-adv-x="1171" d="M141 453q0 134 70 243l412 717h190l-311 -518q56 12 114 12q199 0 336.5 -129t137.5 -323q0 -94 -36 -180.5t-98 -151.5t-151.5 -104t-190.5 -39q-97 0 -184.5 37.5t-150.5 100.5t-100.5 150.5t-37.5 184.5zM307 453q0 -132 90 -225t219 -93q127 0 217.5 93.5t90.5 224.5 q0 132 -90 224.5t-218 92.5q-129 0 -219 -92.5t-90 -224.5z" />
<glyph unicode="7" horiz-adv-x="1060" d="M61 1262v151h938v-86l-612 -1327h-188l600 1262h-738z" />
<glyph unicode="8" horiz-adv-x="1187" d="M113 393q0 126 62.5 222t178.5 147q-81 49 -125.5 129t-44.5 176q0 168 119 267.5t291 99.5t291 -99.5t119 -267.5q0 -96 -44.5 -176t-125.5 -129q116 -51 178.5 -147t62.5 -222q0 -102 -39 -182.5t-106 -130t-153 -75t-185 -25.5q-98 0 -183.5 26t-152 75.5t-105 130 t-38.5 181.5zM279 406q0 -89 45 -154.5t115 -96t153 -30.5q131 0 222 74t91 207q0 131 -89.5 204.5t-223.5 73.5q-135 0 -224 -73.5t-89 -204.5zM352 1063q0 -110 68.5 -178t177.5 -68q104 0 175 63.5t71 168.5q0 109 -71 172t-177 63q-98 0 -171 -60t-73 -161z" />
<glyph unicode="9" horiz-adv-x="1159" d="M92 958q0 126 60.5 234.5t170.5 175t244 66.5q97 0 184.5 -37.5t150.5 -100.5t100.5 -150.5t37.5 -184.5q0 -137 -69 -244l-412 -717h-188l309 518q-55 -12 -115 -12q-199 0 -336 129t-137 323zM258 961q0 -132 90 -225t217 -93q129 0 219 93t90 225t-90 224.5t-219 92.5 q-128 0 -217.5 -92.5t-89.5 -224.5z" />
<glyph unicode=":" horiz-adv-x="409" d="M102 0v203h205v-203h-205zM102 752v202h205v-202h-205z" />
<glyph unicode=";" horiz-adv-x="491" d="M82 -225l102 489h205l-205 -489h-102zM184 752v202h205v-202h-205z" />
<glyph unicode="&#x3c;" horiz-adv-x="1234" d="M121 674l909 506l72 -123l-715 -383l715 -383l-72 -123z" />
<glyph unicode="=" horiz-adv-x="1095" d="M164 426v145h768v-145h-768zM164 772v146h768v-146h-768z" />
<glyph unicode="&#x3e;" horiz-adv-x="1234" d="M133 291l715 383l-715 383l72 123l909 -506l-909 -506z" />
<glyph unicode="?" horiz-adv-x="1032" d="M102 1053q1 116 56.5 203t147 132t204.5 46q180 0 300 -97.5t120 -271.5q0 -69 -19 -123t-48.5 -87t-66 -58.5t-73 -45t-66 -39t-48.5 -48.5t-19 -66v-215h-146v217q0 60 18.5 104.5t48 70.5t65 47t71 40.5t65 44t48 65.5t18.5 97q0 110 -72.5 166.5t-187.5 56.5 q-113 0 -187 -63t-75 -176h-154zM418 0v203h205v-203h-205z" />
<glyph unicode="@" horiz-adv-x="2002" d="M121 543q0 180 70.5 344.5t190 284t284 190t344.5 70.5q181 0 345.5 -70.5t283.5 -190t189 -284.5t70 -346q0 -87 -16 -170t-52 -161t-88 -136.5t-130 -93.5t-172 -35q-119 0 -187.5 75t-56.5 193q-59 -71 -142.5 -110.5t-174.5 -39.5q-101 0 -174 54t-106.5 136.5 t-33.5 182.5q0 82 19.5 166.5t59 163t95 139.5t133 98t166.5 37q90 0 163.5 -49t96.5 -133l27 133h156q-16 -82 -57.5 -243.5t-66 -292.5t-24.5 -246q0 -51 31 -79t82 -28q65 0 118 28.5t87 74t56.5 105.5t32 119t9.5 118q0 200 -99.5 370t-269.5 269.5t-370 99.5 q-150 0 -286.5 -59t-236 -158t-158.5 -236t-59 -286t59 -286t158.5 -236.5t236.5 -158.5t286 -59q117 0 239 39l56 -143q-145 -51 -295 -51q-181 0 -346 71t-283.5 190.5t-189 284.5t-70.5 345zM709 430q0 -97 47 -155t141 -58q67 0 124.5 28.5t98 75.5t69.5 107t42.5 123 t13.5 125q0 97 -47 154t-141 57q-67 0 -124.5 -28t-98 -75t-69.5 -106.5t-42.5 -123t-13.5 -124.5z" />
<glyph unicode="A" horiz-adv-x="1302" d="M51 0l535 1413h133l532 -1413h-186l-109 307h-608l-108 -307h-189zM406 463h493l-246 696z" />
<glyph unicode="B" horiz-adv-x="1218" d="M199 0v1413h405q85 0 165 -25t145 -71t104 -119t39 -162q0 -90 -48 -164.5t-130 -126.5q109 -43 178 -140t69 -214q0 -118 -66 -209t-167.5 -136.5t-216.5 -45.5h-477zM369 160h311q114 0 194 67.5t80 178.5t-79 175t-195 64h-311v-485zM369 801h239q120 0 197.5 54 t77.5 163q0 110 -80 174.5t-195 64.5h-239v-456z" />
<glyph unicode="C" horiz-adv-x="1443" d="M127 707q0 151 39.5 281t116 231t201.5 159t284 58q199 0 349 -97.5t231 -283.5l-160 -66q-42 148 -154 217.5t-268 69.5q-96 0 -175 -29.5t-133 -81.5t-90.5 -123t-53.5 -152.5t-17 -172.5q0 -96 17 -180.5t54 -158t91 -126.5t133.5 -83t177.5 -30q308 0 420 289 l160 -66q-79 -186 -229.5 -284t-350.5 -98q-159 0 -284 57.5t-202.5 158.5t-117 230.5t-39.5 280.5z" />
<glyph unicode="D" horiz-adv-x="1394" d="M184 0v1413h369q346 0 530.5 -184.5t184.5 -532.5q-1 -334 -187.5 -515t-529.5 -181h-367zM356 158h170q125 0 227 32t179 97.5t119.5 172t42.5 247.5q0 550 -545 550h-193v-1099z" />
<glyph unicode="E" horiz-adv-x="1247" d="M195 0v1413h919v-151h-747v-480h659v-151h-659v-473h747v-158h-919z" />
<glyph unicode="F" horiz-adv-x="1150" d="M195 0v1413h919v-151h-747v-480h659v-151h-659v-631h-172z" />
<glyph unicode="G" horiz-adv-x="1536" d="M127 707q0 151 39.5 281t116 231t201.5 159t284 58q199 0 349 -97.5t231 -283.5l-160 -66q-60 140 -168 213.5t-254 73.5q-96 0 -175 -29.5t-133 -81.5t-90.5 -123t-53.5 -152.5t-17 -172.5q0 -96 17 -180.5t54 -158t91 -126.5t133.5 -83t177.5 -30q117 0 213.5 51.5 t158 154.5t66.5 241h-323v137h485v-723h-141l-6 250q-62 -125 -175 -197.5t-278 -72.5q-159 0 -284 57.5t-202.5 158.5t-117 230.5t-39.5 280.5z" />
<glyph unicode="H" horiz-adv-x="1433" d="M195 0v1413h172v-631h700v631h172v-1413h-172v631h-700v-631h-172z" />
<glyph unicode="I" horiz-adv-x="540" d="M184 0v1413h172v-1413h-172z" />
<glyph unicode="J" horiz-adv-x="1054" d="M29 401l168 25q5 -80 33 -143.5t88.5 -106.5t146.5 -43q63 0 110.5 18t76.5 48.5t46.5 77t24 97t6.5 115.5v773h-532v151h704v-913q0 -118 -24 -211t-74.5 -163.5t-136 -108t-201.5 -37.5q-191 0 -307 120t-129 301z" />
<glyph unicode="K" horiz-adv-x="1390" d="M195 0v1413h172v-815l768 815h225l-539 -561l531 -852h-207l-443 733l-335 -348v-385h-172z" />
<glyph unicode="L" horiz-adv-x="1042" d="M195 0v1413h172v-1255h604v-158h-776z" />
<glyph unicode="M" horiz-adv-x="1738" d="M193 0v1413h272l403 -1116l404 1116h272v-1413h-172v1243l-409 -1120h-189l-409 1120v-1243h-172z" />
<glyph unicode="N" horiz-adv-x="1392" d="M193 0v1413h227l608 -1194v1194h172v-1413h-229l-606 1194v-1194h-172z" />
<glyph unicode="O" d="M123 707q0 150 39.5 279.5t116 230.5t201.5 159t284 58t284 -58t201.5 -159t116 -230.5t39.5 -279.5t-39.5 -279.5t-116 -230.5t-201.5 -159t-284 -58t-284 58t-201.5 159t-116 230.5t-39.5 279.5zM295 707q0 -116 27 -216t81.5 -180.5t147 -127t213.5 -46.5t213.5 46.5 t147 127t81.5 180.5t27 216q0 92 -16.5 174t-53 155t-90 126t-133 83.5t-176.5 30.5t-176.5 -30.5t-133 -83.5t-90 -126t-53 -155t-16.5 -174z" />
<glyph unicode="P" horiz-adv-x="1116" d="M193 0v1413h403q209 0 334 -105t125 -290q0 -184 -125 -286.5t-334 -102.5h-231v-629h-172zM365 784h231q140 0 214.5 59.5t74.5 174.5q0 114 -75 176.5t-214 62.5h-231v-473z" />
<glyph unicode="Q" d="M123 707q0 150 39.5 279.5t116 230.5t201.5 159t284 58t284 -58t201.5 -159t116 -230.5t39.5 -279.5q0 -312 -154 -506l199 -199l-104 -104l-199 198q-154 -116 -383 -116q-159 0 -284 58t-201.5 159t-116 230.5t-39.5 279.5zM295 707q0 -116 27 -216t81.5 -180.5 t147 -127t213.5 -46.5q156 0 264 78l-199 199l105 104l196 -196q103 146 103 385q0 92 -16.5 174t-53 155t-90 126t-133 83.5t-176.5 30.5t-176.5 -30.5t-133 -83.5t-90 -126t-53 -155t-16.5 -174z" />
<glyph unicode="R" horiz-adv-x="1193" d="M195 -2v1413h413q193 0 321 -107.5t128 -289.5q0 -137 -81 -234.5t-216 -130.5l383 -651h-199l-362 629h-215v-629h-172zM369 782h264q114 6 184 67.5t70 166.5q0 113 -76.5 177t-200.5 64h-241v-475z" />
<glyph unicode="S" horiz-adv-x="1118" d="M82 365l164 49q14 -132 107.5 -202.5t226.5 -70.5q128 0 202 61.5t74 182.5q0 69 -37.5 123t-97.5 89t-132.5 66.5t-145 66t-132.5 77t-97.5 110t-37.5 154.5q0 162 113.5 262.5t277.5 100.5q272 0 398 -226l-134 -86q-42 79 -112 120.5t-152 41.5q-91 0 -156 -55.5 t-65 -143.5q0 -52 23.5 -94.5t62.5 -72.5t90 -56t107.5 -50t113 -49.5t107.5 -59.5t90 -75t62.5 -100.5t23.5 -132.5q0 -187 -126.5 -299t-319.5 -112q-121 0 -225 40.5t-179 129t-94 211.5z" />
<glyph unicode="T" horiz-adv-x="1159" d="M20 1268v145h1119v-145h-473v-1268h-172v1268h-474z" />
<glyph unicode="U" horiz-adv-x="1327" d="M164 580v833h172v-833q0 -101 16 -177t52.5 -136.5t101.5 -92t158 -31.5t158 31.5t101 92t52 136.5t16 177v833h172v-823q0 -138 -28.5 -247.5t-87.5 -192t-156 -126.5t-227 -44t-227 44t-156 125t-88 189t-29 242z" />
<glyph unicode="V" horiz-adv-x="1277" d="M31 1413h182l426 -1173l426 1173h182l-534 -1413h-146z" />
<glyph unicode="W" horiz-adv-x="1906" d="M31 1413h178l330 -1192l346 1069h137l346 -1069l330 1192h178l-401 -1413h-185l-336 1012l-338 -1012h-184z" />
<glyph unicode="X" horiz-adv-x="1245" d="M51 0l467 707l-465 706h205l365 -582l364 582h205l-465 -706l467 -707h-205l-368 571l-365 -571h-205z" />
<glyph unicode="Y" horiz-adv-x="1294" d="M20 1413h201l426 -692l426 692h201l-541 -860v-553h-172v553z" />
<glyph unicode="Z" horiz-adv-x="1292" d="M92 0v133l879 1129h-834v151h1053v-139l-877 -1116h877v-158h-1098z" />
<glyph unicode="[" horiz-adv-x="720" d="M201 -436v1972h370v-100h-235v-1770h235v-102h-370z" />
<glyph unicode="\" horiz-adv-x="942" d="M10 1516h164l758 -1946h-164z" />
<glyph unicode="]" horiz-adv-x="720" d="M150 -334h235v1770h-235v100h370v-1972h-370v102z" />
<glyph unicode="^" horiz-adv-x="1183" d="M221 836l371 602l373 -602h-168l-205 329l-203 -329h-168z" />
<glyph unicode="_" horiz-adv-x="993" d="M102 0h789v-123h-789v123z" />
<glyph unicode="a" horiz-adv-x="1067" d="M102 279q0 153 99 224.5t270 71.5h303q0 145 -58 221t-192 76q-82 0 -151 -41t-109 -102l-123 92q74 99 167.5 147t223.5 48q185 0 288.5 -108.5t103.5 -293.5v-614h-133l-13 172q-66 -100 -150.5 -146t-203.5 -46q-134 0 -228 83t-94 216zM270 279q0 -79 55 -116.5 t140 -37.5q130 0 219.5 97.5t89.5 221.5h-289q-94 0 -154.5 -44t-60.5 -121z" />
<glyph unicode="b" horiz-adv-x="1191" d="M201 0v1413h164v-547q110 156 307 156q127 0 220.5 -71.5t139 -188t45.5 -262.5t-45.5 -262t-139 -187t-220.5 -71q-200 0 -307 153v-133h-164zM352 500q0 -162 70.5 -268.5t208.5 -106.5q94 0 159 53t94 135.5t29 186.5q0 103 -29 186t-94 137t-159 54 q-71 0 -125.5 -30.5t-87.5 -83.5t-49.5 -119.5t-16.5 -143.5z" />
<glyph unicode="c" horiz-adv-x="1028" d="M115 498q0 103 27.5 195t80.5 165t138.5 115.5t193.5 42.5q135 0 237.5 -70t157.5 -196l-155 -64q-23 86 -87.5 136t-152.5 50q-73 0 -128 -33t-85.5 -88.5t-45.5 -119t-15 -133.5q0 -71 14.5 -134.5t45 -119t85.5 -88.5t129 -33q87 0 152 50.5t88 135.5l143 -59 q-44 -129 -144 -199.5t-237 -70.5q-108 0 -194 42.5t-139 115t-81 164.5t-28 196z" />
<glyph unicode="d" horiz-adv-x="1187" d="M111 500q0 146 45.5 262t139 187t220.5 71q199 0 307 -154v547h164v-1413h-164v133q-107 -153 -307 -153q-127 0 -220.5 71t-139 187t-45.5 262zM274 500q0 -161 72 -266t211 -105q94 0 158 52t91.5 133t27.5 186q0 104 -27.5 184.5t-91.5 132t-158 51.5t-159.5 -51.5 t-94.5 -132.5t-29 -184z" />
<glyph unicode="e" horiz-adv-x="1054" d="M102 494q0 103 27.5 195t81 165t139 115.5t193.5 42.5q97 0 172 -29t123 -77.5t79 -117t43.5 -143t12.5 -160.5l-4 -41h-695q2 -133 76.5 -222t208.5 -89q91 0 156 23t123 82l110 -91q-81 -86 -173 -122.5t-214 -36.5q-90 0 -165.5 26.5t-129 73.5t-91 110.5t-55.5 138.5 t-18 157zM274 575h543q-3 134 -72.5 213.5t-201.5 79.5q-126 0 -194.5 -82.5t-74.5 -210.5z" />
<glyph unicode="f" horiz-adv-x="710" d="M63 860v137h183v177q0 122 80 191t202 69q83 0 162 -37l-41 -133q-41 26 -100 26t-99 -33t-40 -88v-170h280v-139h-280v-860h-164v860h-183z" />
<glyph unicode="g" horiz-adv-x="1060" d="M104 -145q0 51 19 108l170 72q-57 26 -97.5 68t-56.5 79t-16 68q0 113 115 231q-50 82 -50 185q0 155 104 250.5t261 95.5q100 0 184 -41l164 143l90 -121l-147 -108q76 -96 76 -219q0 -157 -104.5 -249.5t-262.5 -92.5q-122 0 -215 57q-70 -70 -70 -125q0 -35 23 -57 t76 -31.5t86 -12t104 -4.5q21 -1 31 -1q47 -1 79 -3t75 -7t72 -13.5t62.5 -21.5t55 -33t40 -46.5t27.5 -64t9 -82.5q0 -75 -25.5 -134t-68 -96.5t-102 -62.5t-123 -35t-134.5 -10q-82 0 -157 16.5t-143.5 51t-109.5 98t-41 148.5zM246 -125q0 -12 4.5 -30t23.5 -47t49.5 -52 t91 -40t140.5 -17q51 0 98 7t95 25t77 55.5t29 90.5q0 45 -21 74t-62.5 42.5t-83.5 18t-103 4.5q-111 0 -162 4zM352 666q0 -92 55.5 -150.5t145.5 -58.5t146.5 59t56.5 150q0 92 -56 152.5t-147 60.5t-146 -60.5t-55 -152.5z" />
<glyph unicode="h" horiz-adv-x="1155" d="M188 0v1413h164v-567q49 78 133.5 124t176.5 46q91 0 160 -33t109 -91t59.5 -129t19.5 -155v-608h-164v588q0 272 -203 272q-119 0 -205 -88t-86 -209v-563h-164z" />
<glyph unicode="i" horiz-adv-x="542" d="M178 1217v202h187v-202h-187zM190 0v999h164v-999h-164z" />
<glyph unicode="j" horiz-adv-x="534" d="M-63 -408l36 129q60 -16 113 -16q102 0 102 127v1167h164v-1144q0 -134 -64.5 -213.5t-195.5 -79.5q-33 0 -71.5 7.5t-60.5 14.5zM176 1217v202h186v-202h-186z" />
<glyph unicode="k" horiz-adv-x="1087" d="M193 0v1413h163v-934l437 520h206l-333 -372l393 -627h-191l-307 520l-205 -227v-293h-163z" />
<glyph unicode="l" horiz-adv-x="571" d="M190 203v1210h164v-1231q0 -7 2 -16.5t16 -26t38 -16.5q19 0 41.5 2.5t35.5 4.5l13 3v-133q-66 -20 -138 -20q-53 0 -88.5 16t-53 48t-24 69t-6.5 90z" />
<glyph unicode="m" horiz-adv-x="1734" d="M190 0v999h164v-161q35 82 107.5 131t161.5 49q106 0 185 -49.5t120 -145.5q47 94 127 143.5t184 49.5q91 0 160.5 -33t109.5 -91t60 -129t20 -155v-608h-164v588q0 56 -9.5 103.5t-31.5 90.5t-63.5 67.5t-99.5 24.5q-115 0 -182.5 -91t-67.5 -218v-565h-164v592 q0 56 -9.5 102.5t-31 89t-63 66.5t-99.5 24q-115 0 -182.5 -91t-67.5 -218v-565h-164z" />
<glyph unicode="n" horiz-adv-x="1155" d="M188 0v999h164v-153q49 78 133.5 124t176.5 46q91 0 160 -33t109 -91t59.5 -129t19.5 -155v-608h-164v588q0 272 -203 272q-119 0 -205 -88t-86 -209v-563h-164z" />
<glyph unicode="o" horiz-adv-x="1167" d="M102 496q0 142 60.5 259.5t171.5 187t250 69.5q210 0 345.5 -149.5t135.5 -366.5t-135.5 -366.5t-345.5 -149.5q-139 0 -250 69.5t-171.5 187t-60.5 259.5zM285 496q0 -76 17 -141t51.5 -118t93.5 -83.5t137 -30.5t137 30.5t93.5 83.5t51.5 118t17 141t-17 141 t-51.5 117.5t-93.5 83t-137 30.5t-137 -30.5t-93.5 -83t-51.5 -117.5t-17 -141z" />
<glyph unicode="p" horiz-adv-x="1171" d="M193 -438v1437h163v-133q108 154 308 154q126 0 219.5 -70.5t139.5 -187.5t46 -262t-46 -262t-139.5 -187.5t-219.5 -70.5q-201 0 -308 153v-571h-163zM344 500q0 -105 27.5 -187t92 -135t159.5 -53q94 0 158.5 53t93 135t28.5 187q0 161 -71 267.5t-209 106.5 q-94 0 -159 -53t-92.5 -135t-27.5 -186z" />
<glyph unicode="q" horiz-adv-x="1187" d="M117 500q0 146 45.5 262t139 187t220.5 71q199 0 307 -154v133h164v-1437h-164v571q-107 -153 -307 -153q-127 0 -220.5 71t-139 187t-45.5 262zM281 500q0 -104 29 -186.5t94 -135.5t159 -53t158 53t91.5 135t27.5 187q0 104 -27.5 186t-92 135t-157.5 53 q-94 0 -159 -53t-94 -135.5t-29 -185.5z" />
<glyph unicode="r" horiz-adv-x="747" d="M170 0v999h166v-182q30 90 109 143.5t165 53.5q113 0 178 -51l-61 -136q-51 43 -127 43q-84 0 -145.5 -60t-91 -158.5t-29.5 -223.5v-428h-164z" />
<glyph unicode="s" horiz-adv-x="892" d="M82 231l135 70q24 -75 90 -126.5t152 -51.5q84 0 139 39t55 119q0 49 -29.5 81.5t-76.5 49.5t-104 30.5t-114 32t-104 46t-76.5 80.5t-29.5 128q0 126 94.5 205.5t224.5 79.5q118 0 203.5 -55.5t134.5 -143.5l-125 -72q-69 127 -213 127q-73 0 -120.5 -35t-47.5 -100 q0 -33 18.5 -57t50 -38t72 -25.5t85 -22.5t89.5 -24t85.5 -35.5t72 -53t50 -79t18.5 -111.5q0 -141 -104 -225t-248 -84q-136 0 -239.5 72.5t-137.5 178.5z" />
<glyph unicode="t" horiz-adv-x="688" d="M61 860v139h156v230l164 143v-373h256v-139h-256v-600q0 -137 106 -137q37 0 69.5 5t45.5 10l14 5v-143q-55 -20 -143 -20q-129 0 -192.5 75.5t-63.5 208.5v596h-156z" />
<glyph unicode="u" horiz-adv-x="1173" d="M166 406v593h164v-593q0 -56 9 -103t30 -90t62 -67.5t99 -24.5q119 0 206 93.5t87 215.5v569h164v-999h-164v160q-38 -71 -122.5 -127t-186.5 -56q-91 0 -160 35t-109 96t-59.5 135.5t-19.5 162.5z" />
<glyph unicode="v" horiz-adv-x="958" d="M31 999h178l270 -786l273 786h176l-377 -999h-143z" />
<glyph unicode="w" horiz-adv-x="1433" d="M47 999h174l199 -776l223 776h148l223 -774l198 774h174l-284 -999h-156l-229 786l-230 -786h-155z" />
<glyph unicode="x" horiz-adv-x="942" d="M43 0l336 504l-336 495h199l229 -366l229 366h199l-336 -495l336 -504h-199l-229 373l-229 -373h-199z" />
<glyph unicode="y" horiz-adv-x="997" d="M41 999h180l285 -798l280 798h181l-541 -1429h-170l168 440z" />
<glyph unicode="z" horiz-adv-x="933" d="M68 0v121l600 739h-572v139h770v-133l-590 -727h590v-139h-798z" />
<glyph unicode="{" horiz-adv-x="778" d="M164 389v139q131 49 131 199v541q0 132 50 200t165 68h51q35 0 53 -2v-102q-54 8 -69 8q-105 0 -105 -86v-641q0 -90 -42 -152t-132 -110q86 -40 130 -89.5t44 -123.5v-461q0 -193 129 -193q21 0 45 6v-100q-18 -2 -55 -2h-72q-101 0 -159 100q-33 50 -33 183v462 q0 100 -131 156z" />
<glyph unicode="|" horiz-adv-x="520" d="M201 -512v2046h118v-2046h-118z" />
<glyph unicode="}" horiz-adv-x="778" d="M164 -410q24 -6 45 -6q129 0 129 193v461q0 76 44.5 124.5t129.5 88.5q-93 51 -133.5 112t-40.5 150v641q0 86 -105 86q-15 0 -69 -8v102q18 2 53 2h51q115 0 165 -68t50 -200v-541q0 -150 131 -199v-139q-131 -56 -131 -156v-462q0 -134 -32 -183q-58 -100 -160 -100 h-72q-37 0 -55 2v100z" />
<glyph unicode="~" horiz-adv-x="954" d="M102 406q0 111 51 178t146 67q55 0 100 -16.5t74.5 -39.5t55 -46.5t54 -40t58.5 -16.5q54 0 75 38.5t21 114.5h117q0 -128 -56.5 -197t-162.5 -69q-46 0 -87 17t-70.5 41t-57 48t-58 41t-61.5 17q-94 0 -90 -137h-109z" />
<glyph unicode="&#xa1;" horiz-adv-x="548" d="M172 1233v203h205v-203h-205zM184 0l29 1049h123l29 -1049h-181z" />
<glyph unicode="&#xa2;" horiz-adv-x="1007" d="M104 498q0 96 23.5 182.5t69.5 157t119.5 117t166.5 57.5v188h119v-188q115 -13 202.5 -82t135.5 -180l-156 -64q-23 86 -87 134t-152 48q-73 0 -128 -32.5t-86 -87t-46 -117.5t-15 -133q0 -71 14.5 -134t45.5 -117.5t86 -87t129 -32.5q88 0 152 48.5t87 133.5l144 -59 q-40 -116 -124.5 -185t-201.5 -81v-189h-119v189q-182 24 -280.5 169t-98.5 345z" />
<glyph unicode="&#xa3;" horiz-adv-x="1079" d="M25 0v119q10 7 26.5 20.5t58 53t73.5 79t58.5 92.5t26.5 99q0 34 -6.5 77t-13.5 69l-6 26h-215v133h182q-47 121 -47 248q0 84 26.5 159.5t75.5 133t124.5 91.5t168.5 34q132 0 230 -80.5t143 -206.5l-125 -45q-33 91 -98 144.5t-150 53.5q-122 0 -192 -78.5t-70 -205.5 q0 -54 12.5 -116t25.5 -97l13 -35h471v-133h-438q20 -90 20 -170q0 -56 -17.5 -111t-43 -93t-51 -68.5t-43.5 -44.5l-17 -15h826v-133h-1028z" />
<glyph unicode="&#xa4;" horiz-adv-x="1134" d="M23 1024l149 150l160 -209q104 77 235 77q132 0 236 -77l174 194l149 -149l-225 -146q72 -106 72 -235q0 -130 -72 -236l225 -174l-149 -149l-174 223q-105 -78 -236 -78q-130 0 -235 78l-146 -223l-149 149l196 174q-71 104 -71 236q0 131 71 235zM326 629 q0 -115 66.5 -186.5t174.5 -71.5t175 72t67 186t-67 186t-175 72t-174.5 -71.5t-66.5 -186.5z" />
<glyph unicode="&#xa5;" horiz-adv-x="1273" d="M10 1413h201l426 -688l426 688h201l-476 -751h234v-146h-301v-201h301v-145h-301v-170h-168v170h-299v145h299v201h-299v146h231z" />
<glyph unicode="&#xa6;" horiz-adv-x="520" d="M201 -307v727h118v-727h-118zM201 731v744h118v-744h-118z" />
<glyph unicode="&#xa7;" horiz-adv-x="876" d="M43 270l137 43q57 -190 277 -190q233 0 233 164q0 41 -25.5 69t-67.5 41.5t-96 26.5t-110 22.5t-110 30.5t-96 49.5t-67.5 80.5t-25.5 122q0 60 27 116t74 97q-47 34 -73 85t-26 110q0 92 51.5 161.5t129.5 102.5t169 33q134 0 233.5 -70t137.5 -197l-139 -37 q-47 162 -234 162q-85 0 -145.5 -42t-60.5 -124q0 -44 33 -71.5t85.5 -41t116.5 -25t128 -30t116.5 -47.5t85.5 -86.5t33 -138.5q0 -128 -95 -211q95 -71 95 -196q0 -77 -32.5 -136t-87 -93t-119.5 -51t-138 -17q-153 0 -262 72.5t-152 215.5zM236 729q0 -34 19.5 -62 t47.5 -45t69.5 -32t75.5 -22.5t76 -16.5t60 -14q106 45 106 159q0 31 -13 57t-37 43.5t-50.5 31t-63 23.5t-64.5 16t-63.5 13t-52.5 11q-52 -22 -81 -64t-29 -98z" />
<glyph unicode="&#xa9;" horiz-adv-x="1718" d="M102 707q0 154 60 294t161.5 241t242 160.5t294.5 59.5t294 -59.5t241 -160.5t161 -241t60 -294t-60 -294t-161 -241t-241 -161t-294 -60t-294.5 60t-242 161t-161.5 241t-60 294zM231 707q0 -125 50.5 -241.5t135 -201t201 -135.5t242.5 -51q125 0 241.5 51t201 135.5 t135.5 201t51 241.5t-51 241t-135.5 201t-201 135.5t-241.5 50.5q-126 0 -242.5 -50.5t-201 -135.5t-135 -201t-50.5 -241zM518 705q0 177 93.5 293t265.5 116q106 0 187.5 -51t125.5 -145l-117 -52q-58 119 -196 119q-116 0 -175 -80t-59 -200t57.5 -199.5t173.5 -79.5 q139 0 197 119l119 -51q-44 -95 -125.5 -147t-187.5 -52q-172 0 -265.5 116.5t-93.5 293.5z" />
<glyph unicode="&#xaa;" horiz-adv-x="800" d="M92 918q0 107 69 157.5t189 50.5h215q0 215 -176 215q-58 0 -106.5 -29t-75.5 -71l-86 55q52 71 117 104.5t155 33.5q130 0 202.5 -76t72.5 -205v-430h-93l-6 121q-46 -70 -105.5 -102.5t-144.5 -32.5q-95 0 -161 58t-66 151zM211 918q0 -49 42 -81t93 -32q91 0 155 70.5 t64 158.5h-205q-65 0 -107 -31t-42 -85z" />
<glyph unicode="&#xab;" horiz-adv-x="1026" d="M143 510l377 332v-168l-192 -164l192 -162v-168zM506 510l377 332v-168l-193 -164l193 -162v-168z" />
<glyph unicode="&#xac;" horiz-adv-x="1189" d="M141 651v146h887v-506h-151v360h-736z" />
<glyph unicode="&#xad;" horiz-adv-x="849" d="M92 569v123h666v-123h-666z" />
<glyph unicode="&#xae;" horiz-adv-x="1718" d="M102 709q0 154 60 294t161.5 241t242 160.5t294.5 59.5t294 -59.5t241 -160.5t161 -241t60 -294t-60 -294t-161 -241t-241 -161t-294 -60t-294.5 60t-242 161t-161.5 241t-60 294zM221 709q0 -128 51.5 -246t137.5 -203.5t204 -136.5t246 -51q170 0 317 86t233.5 233 t86.5 318t-86.5 318t-233.5 233t-317 86q-128 0 -246 -51t-204 -136.5t-137.5 -203.5t-51.5 -246zM608 301v799h305q131 0 198 -61t67 -173q0 -95 -45.5 -149.5t-116.5 -69.5l201 -346h-150l-178 332h-150v-332h-131zM727 752h186q146 0 146 114q0 61 -35 88t-111 27h-186 v-229z" />
<glyph unicode="&#xb0;" horiz-adv-x="831" d="M123 1141q0 121 85.5 207t207.5 86t207.5 -86t85.5 -207t-85.5 -207t-207.5 -86t-207.5 86t-85.5 207zM225 1141q0 -78 56.5 -134.5t134.5 -56.5t134 56.5t56 134.5t-56 134t-134 56t-134.5 -56t-56.5 -134z" />
<glyph unicode="&#xb1;" horiz-adv-x="1261" d="M113 563v123h456v457h123v-457h457v-123h-457v-457h-123v457h-456zM115 0h1034v-123h-1034v123z" />
<glyph unicode="&#xb5;" horiz-adv-x="1153" d="M154 -266v1265h165v-593q0 -279 201 -279q119 0 206 91t87 212v569h166v-999h-166v160q-38 -71 -122.5 -127t-186.5 -56q-106 0 -185 50l-20 -293h-145z" />
<glyph unicode="&#xb6;" horiz-adv-x="1239" d="M80 1018q0 120 65 212t166.5 137.5t220.5 45.5h170v-1413h-170v623q-119 0 -220.5 45.5t-166.5 137.5t-65 212zM883 0v1413h172v-1413h-172z" />
<glyph unicode="&#xb7;" horiz-adv-x="542" d="M143 821q0 54 36.5 90.5t90.5 36.5t91.5 -36.5t37.5 -90.5t-37.5 -91.5t-91.5 -37.5t-90.5 37.5t-36.5 91.5z" />
<glyph unicode="&#xba;" horiz-adv-x="858" d="M92 1073q0 152 95 256.5t243 104.5q147 0 241.5 -104.5t94.5 -256.5q0 -153 -94.5 -257.5t-241.5 -104.5q-148 0 -243 104.5t-95 257.5zM219 1073q0 -112 52 -185t159 -73q106 0 157.5 73t51.5 185q0 71 -20 127t-68.5 93.5t-120.5 37.5q-107 0 -159 -73.5t-52 -184.5z " />
<glyph unicode="&#xbb;" horiz-adv-x="1026" d="M143 180v168l193 162l-193 164v168l377 -332zM506 180v168l192 162l-192 164v168l377 -332z" />
<glyph unicode="&#xbf;" horiz-adv-x="1032" d="M102 369q0 69 19 123t48.5 87t66 58.5t73 45t66 39t48.5 48.5t19 66v215h146v-217q0 -60 -18.5 -104.5t-48 -70.5t-65 -47t-71 -40.5t-65 -44t-48 -65.5t-18.5 -97q0 -110 72.5 -167t187.5 -57q113 0 187 63.5t75 176.5h154q-1 -116 -56.5 -203t-147 -132t-204.5 -46 q-180 0 -300 97.5t-120 271.5zM410 1231v203h204v-203h-204z" />
<glyph unicode="&#xc0;" horiz-adv-x="1302" d="M51 0l535 1413h133l532 -1413h-186l-109 307h-608l-108 -307h-189zM328 1827h204l216 -289h-168zM406 463h493l-246 696z" />
<glyph unicode="&#xc1;" horiz-adv-x="1302" d="M51 0l535 1413h133l532 -1413h-186l-109 307h-608l-108 -307h-189zM406 463h493l-246 696zM539 1538l215 289h204l-272 -289h-147z" />
<glyph unicode="&#xc2;" horiz-adv-x="1302" d="M51 0l535 1413h133l532 -1413h-186l-109 307h-608l-108 -307h-189zM322 1511l329 357l332 -357h-158l-174 193l-172 -193h-157zM406 463h493l-246 696z" />
<glyph unicode="&#xc3;" horiz-adv-x="1302" d="M51 0l535 1413h133l532 -1413h-186l-109 307h-608l-108 -307h-189zM274 1587q0 111 51 178.5t146 67.5q55 0 100 -16.5t74.5 -40.5t55 -48t54 -40.5t58.5 -16.5q54 0 75 39.5t21 116.5h117q0 -128 -56.5 -197t-162.5 -69q-56 0 -106 25.5t-81 56t-70.5 56t-76.5 25.5 q-94 0 -90 -137h-109zM406 463h493l-246 696z" />
<glyph unicode="&#xc4;" horiz-adv-x="1302" d="M51 0l535 1413h133l532 -1413h-186l-109 307h-608l-108 -307h-189zM401 1593v172h164v-172h-164zM406 463h493l-246 696zM735 1593v172h164v-172h-164z" />
<glyph unicode="&#xc5;" horiz-adv-x="1302" d="M51 0l508 1341q-50 26 -79 74.5t-29 106.5q0 83 57.5 140.5t140.5 57.5t142 -57t59 -141q0 -56 -29 -103.5t-76 -72.5l506 -1346h-186l-109 307h-608l-108 -307h-189zM406 463h493l-246 696zM551 1522q0 -44 28 -72.5t70 -28.5t71.5 29.5t29.5 71.5t-28.5 70t-72.5 28 t-71 -27t-27 -71z" />
<glyph unicode="&#xc6;" horiz-adv-x="1806" d="M25 0l534 1413h1135v-151h-748v-480h660v-151h-660v-473h748v-158h-920v307h-450l-111 -307h-188zM381 463h393v799h-98z" />
<glyph unicode="&#xc7;" horiz-adv-x="1443" d="M127 707q0 151 39.5 281t116 231t201.5 159t284 58q199 0 349 -97.5t231 -283.5l-160 -66q-42 148 -154 217.5t-268 69.5q-96 0 -175 -29.5t-133 -81.5t-90.5 -123t-53.5 -152.5t-17 -172.5q0 -96 17 -180.5t54 -158t91 -126.5t133.5 -83t177.5 -30q308 0 420 289 l160 -66q-79 -184 -228.5 -282t-347.5 -100l-72 -109q89 -17 139 -62.5t50 -107.5q0 -84 -59.5 -142.5t-135.5 -58.5q-63 0 -111.5 35.5t-68.5 89.5l94 49q5 -29 29 -49t57 -20q34 0 61 25.5t27 62.5q0 59 -88 88l-121 39l89 166q-133 19 -237 83.5t-169 162t-98 218 t-33 257.5z" />
<glyph unicode="&#xc8;" horiz-adv-x="1247" d="M195 0v1413h919v-151h-747v-480h659v-151h-659v-473h747v-158h-919zM301 1827h205l215 -289h-168z" />
<glyph unicode="&#xc9;" horiz-adv-x="1247" d="M195 0v1413h919v-151h-747v-480h659v-151h-659v-473h747v-158h-919zM512 1538l215 289h205l-273 -289h-147z" />
<glyph unicode="&#xca;" horiz-adv-x="1247" d="M195 0v1413h919v-151h-747v-480h659v-151h-659v-473h747v-158h-919zM295 1511l330 357l331 -357h-157l-174 193l-172 -193h-158z" />
<glyph unicode="&#xcb;" horiz-adv-x="1247" d="M195 0v1413h919v-151h-747v-480h659v-151h-659v-473h747v-158h-919zM375 1593v172h164v-172h-164zM709 1593v172h163v-172h-163z" />
<glyph unicode="&#xcc;" horiz-adv-x="540" d="M-53 1827h205l215 -289h-168zM184 0v1413h172v-1413h-172z" />
<glyph unicode="&#xcd;" horiz-adv-x="540" d="M158 1538l215 289h205l-273 -289h-147zM184 0v1413h172v-1413h-172z" />
<glyph unicode="&#xce;" horiz-adv-x="540" d="M-59 1511l329 357l332 -357h-158l-174 193l-172 -193h-157zM184 0v1413h172v-1413h-172z" />
<glyph unicode="&#xcf;" horiz-adv-x="540" d="M20 1593v172h164v-172h-164zM184 0v1413h172v-1413h-172zM354 1593v172h164v-172h-164z" />
<glyph unicode="&#xd0;" horiz-adv-x="1394" d="M72 651v123h112v639h369q346 0 530.5 -184.5t184.5 -532.5q-1 -334 -187.5 -515t-529.5 -181h-367v651h-112zM356 158h170q125 0 227 32t179 97.5t119.5 172t42.5 247.5q0 550 -545 550h-193v-483h422v-123h-422v-493z" />
<glyph unicode="&#xd1;" horiz-adv-x="1392" d="M193 0v1413h227l608 -1194v1194h172v-1413h-229l-606 1194v-1194h-172zM319 1587q0 111 51 178.5t146 67.5q55 0 100 -16.5t74.5 -40.5t55 -48t54 -40.5t58.5 -16.5q54 0 75 39.5t21 116.5h117q0 -128 -56.5 -197t-162.5 -69q-56 0 -106 25.5t-81 56t-70.5 56t-76.5 25.5 q-94 0 -90 -137h-109z" />
<glyph unicode="&#xd2;" d="M123 707q0 150 39.5 279.5t116 230.5t201.5 159t284 58t284 -58t201.5 -159t116 -230.5t39.5 -279.5t-39.5 -279.5t-116 -230.5t-201.5 -159t-284 -58t-284 58t-201.5 159t-116 230.5t-39.5 279.5zM295 707q0 -116 27 -216t81.5 -180.5t147 -127t213.5 -46.5t213.5 46.5 t147 127t81.5 180.5t27 216q0 92 -16.5 174t-53 155t-90 126t-133 83.5t-176.5 30.5t-176.5 -30.5t-133 -83.5t-90 -126t-53 -155t-16.5 -174zM440 1827h205l215 -289h-168z" />
<glyph unicode="&#xd3;" d="M123 707q0 150 39.5 279.5t116 230.5t201.5 159t284 58t284 -58t201.5 -159t116 -230.5t39.5 -279.5t-39.5 -279.5t-116 -230.5t-201.5 -159t-284 -58t-284 58t-201.5 159t-116 230.5t-39.5 279.5zM295 707q0 -116 27 -216t81.5 -180.5t147 -127t213.5 -46.5t213.5 46.5 t147 127t81.5 180.5t27 216q0 92 -16.5 174t-53 155t-90 126t-133 83.5t-176.5 30.5t-176.5 -30.5t-133 -83.5t-90 -126t-53 -155t-16.5 -174zM651 1538l215 289h205l-272 -289h-148z" />
<glyph unicode="&#xd4;" d="M123 707q0 150 39.5 279.5t116 230.5t201.5 159t284 58t284 -58t201.5 -159t116 -230.5t39.5 -279.5t-39.5 -279.5t-116 -230.5t-201.5 -159t-284 -58t-284 58t-201.5 159t-116 230.5t-39.5 279.5zM295 707q0 -116 27 -216t81.5 -180.5t147 -127t213.5 -46.5t213.5 46.5 t147 127t81.5 180.5t27 216q0 92 -16.5 174t-53 155t-90 126t-133 83.5t-176.5 30.5t-176.5 -30.5t-133 -83.5t-90 -126t-53 -155t-16.5 -174zM434 1511l330 357l332 -357h-158l-174 193l-172 -193h-158z" />
<glyph unicode="&#xd5;" d="M123 707q0 150 39.5 279.5t116 230.5t201.5 159t284 58t284 -58t201.5 -159t116 -230.5t39.5 -279.5t-39.5 -279.5t-116 -230.5t-201.5 -159t-284 -58t-284 58t-201.5 159t-116 230.5t-39.5 279.5zM295 707q0 -116 27 -216t81.5 -180.5t147 -127t213.5 -46.5t213.5 46.5 t147 127t81.5 180.5t27 216q0 92 -16.5 174t-53 155t-90 126t-133 83.5t-176.5 30.5t-176.5 -30.5t-133 -83.5t-90 -126t-53 -155t-16.5 -174zM387 1587q0 111 51 178.5t146 67.5q55 0 100 -16.5t74.5 -40.5t55 -48t54 -40.5t58.5 -16.5q54 0 75 39.5t21 116.5h117 q0 -128 -56.5 -197t-162.5 -69q-56 0 -106 25.5t-81 56t-70.5 56t-76.5 25.5q-94 0 -90 -137h-109z" />
<glyph unicode="&#xd6;" d="M123 707q0 150 39.5 279.5t116 230.5t201.5 159t284 58t284 -58t201.5 -159t116 -230.5t39.5 -279.5t-39.5 -279.5t-116 -230.5t-201.5 -159t-284 -58t-284 58t-201.5 159t-116 230.5t-39.5 279.5zM295 707q0 -116 27 -216t81.5 -180.5t147 -127t213.5 -46.5t213.5 46.5 t147 127t81.5 180.5t27 216q0 92 -16.5 174t-53 155t-90 126t-133 83.5t-176.5 30.5t-176.5 -30.5t-133 -83.5t-90 -126t-53 -155t-16.5 -174zM514 1593v172h164v-172h-164zM848 1593v172h164v-172h-164z" />
<glyph unicode="&#xd7;" horiz-adv-x="1261" d="M221 301l324 324l-324 323l86 86l324 -323l323 323l86 -86l-323 -323l323 -324l-86 -86l-323 324l-324 -324z" />
<glyph unicode="&#xd8;" d="M123 707q0 150 39.5 279.5t116 230.5t201.5 159t284 58q176 0 307 -70l29 49h121l-60 -106q121 -97 182.5 -253.5t61.5 -346.5q0 -150 -39.5 -279.5t-116 -230.5t-201.5 -159t-284 -58q-177 0 -309 69l-29 -49h-121l62 109q-121 96 -182.5 252.5t-61.5 345.5zM295 707 q0 -137 38.5 -255.5t115.5 -195.5l542 965q-96 55 -227 55q-97 0 -176.5 -30.5t-133 -83.5t-90 -126t-53 -155t-16.5 -174zM535 193q98 -56 229 -56q121 0 213.5 46.5t147 127t81.5 180.5t27 216q0 298 -156 450z" />
<glyph unicode="&#xd9;" horiz-adv-x="1327" d="M164 580v833h172v-833q0 -101 16 -177t52.5 -136.5t101.5 -92t158 -31.5t158 31.5t101 92t52 136.5t16 177v833h172v-823q0 -138 -28.5 -247.5t-87.5 -192t-156 -126.5t-227 -44t-227 44t-156 125t-88 189t-29 242zM340 1827h205l215 -289h-168z" />
<glyph unicode="&#xda;" horiz-adv-x="1327" d="M164 580v833h172v-833q0 -101 16 -177t52.5 -136.5t101.5 -92t158 -31.5t158 31.5t101 92t52 136.5t16 177v833h172v-823q0 -138 -28.5 -247.5t-87.5 -192t-156 -126.5t-227 -44t-227 44t-156 125t-88 189t-29 242zM551 1538l215 289h205l-273 -289h-147z" />
<glyph unicode="&#xdb;" horiz-adv-x="1327" d="M164 580v833h172v-833q0 -101 16 -177t52.5 -136.5t101.5 -92t158 -31.5t158 31.5t101 92t52 136.5t16 177v833h172v-823q0 -138 -28.5 -247.5t-87.5 -192t-156 -126.5t-227 -44t-227 44t-156 125t-88 189t-29 242zM334 1511l330 357l331 -357h-157l-174 193l-172 -193 h-158z" />
<glyph unicode="&#xdc;" horiz-adv-x="1327" d="M164 580v833h172v-833q0 -101 16 -177t52.5 -136.5t101.5 -92t158 -31.5t158 31.5t101 92t52 136.5t16 177v833h172v-823q0 -138 -28.5 -247.5t-87.5 -192t-156 -126.5t-227 -44t-227 44t-156 125t-88 189t-29 242zM414 1593v172h164v-172h-164zM748 1593v172h163v-172 h-163z" />
<glyph unicode="&#xdd;" horiz-adv-x="1294" d="M20 1413h201l426 -692l426 692h201l-541 -860v-553h-172v553zM535 1538l215 289h204l-272 -289h-147z" />
<glyph unicode="&#xde;" horiz-adv-x="1116" d="M195 0v1413h170v-201h231q209 0 334 -105t125 -290q0 -184 -125 -286.5t-334 -102.5h-231v-428h-170zM365 584h231q140 0 214.5 59t74.5 174q0 114 -75 177t-214 63h-231v-473z" />
<glyph unicode="&#xdf;" horiz-adv-x="1054" d="M141 0v1053q0 176 117 278.5t295 102.5q73 0 144.5 -24t129.5 -67t93.5 -109t35.5 -144q0 -57 -24 -99.5t-58 -67.5t-67.5 -46.5t-57.5 -49.5t-24 -63q0 -38 32.5 -74.5t78.5 -70t92.5 -73.5t79 -102t32.5 -137q0 -143 -99 -234t-247 -91q-128 0 -284 73l67 150 q113 -64 217 -64q68 0 114 45t46 111q0 41 -16 78.5t-42 67.5t-57 59t-62.5 58t-57.5 59.5t-42 70t-16 82.5q0 48 22 85t53.5 61.5t63.5 48t54 57t22 76.5q0 83 -56.5 134.5t-164.5 51.5q-110 0 -170.5 -64.5t-60.5 -170.5v-1051h-183z" />
<glyph unicode="&#xe0;" horiz-adv-x="1067" d="M102 279q0 153 99 224.5t270 71.5h303q0 145 -58 221t-192 76q-82 0 -151 -41t-109 -102l-123 92q74 99 167.5 147t223.5 48q185 0 288.5 -108.5t103.5 -293.5v-614h-133l-13 172q-66 -100 -150.5 -146t-203.5 -46q-134 0 -228 83t-94 216zM211 1413h205l215 -289h-168z M270 279q0 -79 55 -116.5t140 -37.5q130 0 219.5 97.5t89.5 221.5h-289q-94 0 -154.5 -44t-60.5 -121z" />
<glyph unicode="&#xe1;" horiz-adv-x="1067" d="M102 279q0 153 99 224.5t270 71.5h303q0 145 -58 221t-192 76q-82 0 -151 -41t-109 -102l-123 92q74 99 167.5 147t223.5 48q185 0 288.5 -108.5t103.5 -293.5v-614h-133l-13 172q-66 -100 -150.5 -146t-203.5 -46q-134 0 -228 83t-94 216zM270 279q0 -79 55 -116.5 t140 -37.5q130 0 219.5 97.5t89.5 221.5h-289q-94 0 -154.5 -44t-60.5 -121zM422 1124l215 289h205l-273 -289h-147z" />
<glyph unicode="&#xe2;" horiz-adv-x="1067" d="M102 279q0 153 99 224.5t270 71.5h303q0 145 -58 221t-192 76q-82 0 -151 -41t-109 -102l-123 92q74 99 167.5 147t223.5 48q185 0 288.5 -108.5t103.5 -293.5v-614h-133l-13 172q-66 -100 -150.5 -146t-203.5 -46q-134 0 -228 83t-94 216zM205 1098l330 356l331 -356 h-157l-174 192l-173 -192h-157zM270 279q0 -79 55 -116.5t140 -37.5q130 0 219.5 97.5t89.5 221.5h-289q-94 0 -154.5 -44t-60.5 -121z" />
<glyph unicode="&#xe3;" horiz-adv-x="1067" d="M102 279q0 153 99 224.5t270 71.5h303q0 145 -58 221t-192 76q-82 0 -151 -41t-109 -102l-123 92q74 99 167.5 147t223.5 48q185 0 288.5 -108.5t103.5 -293.5v-614h-133l-13 172q-66 -100 -150.5 -146t-203.5 -46q-134 0 -228 83t-94 216zM158 1174q0 111 50.5 178 t145.5 67q55 0 100 -16.5t74.5 -40.5t55 -48t54 -40.5t58.5 -16.5q54 0 75.5 40t21.5 116h116q0 -128 -56.5 -197t-162.5 -69q-46 0 -87 17t-70.5 41t-57 48t-58 41t-61.5 17q-94 0 -90 -137h-108zM270 279q0 -79 55 -116.5t140 -37.5q130 0 219.5 97.5t89.5 221.5h-289 q-94 0 -154.5 -44t-60.5 -121z" />
<glyph unicode="&#xe4;" horiz-adv-x="1067" d="M102 279q0 153 99 224.5t270 71.5h303q0 145 -58 221t-192 76q-82 0 -151 -41t-109 -102l-123 92q74 99 167.5 147t223.5 48q185 0 288.5 -108.5t103.5 -293.5v-614h-133l-13 172q-66 -100 -150.5 -146t-203.5 -46q-134 0 -228 83t-94 216zM270 279q0 -79 55 -116.5 t140 -37.5q130 0 219.5 97.5t89.5 221.5h-289q-94 0 -154.5 -44t-60.5 -121zM285 1180v172h164v-172h-164zM618 1180v172h164v-172h-164z" />
<glyph unicode="&#xe5;" horiz-adv-x="1067" d="M102 279q0 153 99 224.5t270 71.5h303q0 145 -58 221t-192 76q-82 0 -151 -41t-109 -102l-123 92q74 99 167.5 147t223.5 48q185 0 288.5 -108.5t103.5 -293.5v-614h-133l-13 172q-66 -100 -150.5 -146t-203.5 -46q-134 0 -228 83t-94 216zM270 279q0 -79 55 -116.5 t140 -37.5q130 0 219.5 97.5t89.5 221.5h-289q-94 0 -154.5 -44t-60.5 -121zM334 1280q0 83 57.5 141t140.5 58t142 -57.5t59 -141.5q0 -83 -59 -142t-142 -59q-84 0 -141 58.5t-57 142.5zM434 1280q0 -44 28 -72t70 -28t71.5 29t29.5 71t-28.5 70t-72.5 28t-71 -27t-27 -71 z" />
<glyph unicode="&#xe6;" horiz-adv-x="1699" d="M92 279q0 153 99 224.5t270 71.5h307q0 308 -254 308q-82 0 -151 -41.5t-109 -102.5l-123 82q74 99 167.5 147t223.5 48q242 0 330 -187q102 183 326 183q97 0 172 -29t123 -77.5t79 -117t43.5 -143t12.5 -160.5l-4 -41h-695q2 -133 76 -222t209 -89q90 0 156 23t123 82 l108 -91q-80 -86 -171.5 -122.5t-213.5 -36.5q-289 0 -381 262q-115 -270 -399 -270q-135 0 -229.5 83t-94.5 216zM260 279q0 -68 61.5 -114t133.5 -46q86 0 159 48t113.5 122.5t40.5 154.5h-293q-94 0 -154.5 -44t-60.5 -121zM909 575h543q-3 134 -72.5 213.5t-201.5 79.5 q-126 0 -194.5 -82.5t-74.5 -210.5z" />
<glyph unicode="&#xe7;" horiz-adv-x="1028" d="M115 498q0 103 27.5 195t80.5 165t138.5 115.5t193.5 42.5q135 0 237.5 -70t157.5 -196l-155 -64q-23 86 -87.5 136t-152.5 50q-73 0 -128 -33t-85.5 -88.5t-45.5 -119t-15 -133.5q0 -71 14.5 -134.5t45 -119t85.5 -88.5t129 -33q87 0 152 50.5t88 135.5l143 -59 q-44 -127 -141.5 -197t-231.5 -73l-71 -109q89 -17 138.5 -62.5t49.5 -107.5q0 -84 -59.5 -142.5t-135.5 -58.5q-63 0 -111.5 35.5t-68.5 89.5l94 49q5 -29 29 -49t57 -20q34 0 61 25.5t27 62.5q0 59 -88 88l-120 39l88 170q-163 35 -251.5 177t-88.5 331z" />
<glyph unicode="&#xe8;" horiz-adv-x="1054" d="M102 494q0 103 27.5 195t81 165t139 115.5t193.5 42.5q97 0 172 -29t123 -77.5t79 -117t43.5 -143t12.5 -160.5l-4 -41h-695q2 -133 76.5 -222t208.5 -89q91 0 156 23t123 82l110 -91q-81 -86 -173 -122.5t-214 -36.5q-90 0 -165.5 26.5t-129 73.5t-91 110.5t-55.5 138.5 t-18 157zM209 1413h205l215 -289h-168zM274 575h543q-3 134 -72.5 213.5t-201.5 79.5q-126 0 -194.5 -82.5t-74.5 -210.5z" />
<glyph unicode="&#xe9;" horiz-adv-x="1054" d="M102 494q0 103 27.5 195t81 165t139 115.5t193.5 42.5q97 0 172 -29t123 -77.5t79 -117t43.5 -143t12.5 -160.5l-4 -41h-695q2 -133 76.5 -222t208.5 -89q91 0 156 23t123 82l110 -91q-81 -86 -173 -122.5t-214 -36.5q-90 0 -165.5 26.5t-129 73.5t-91 110.5t-55.5 138.5 t-18 157zM274 575h543q-3 134 -72.5 213.5t-201.5 79.5q-126 0 -194.5 -82.5t-74.5 -210.5zM420 1124l215 289h205l-273 -289h-147z" />
<glyph unicode="&#xea;" horiz-adv-x="1054" d="M102 494q0 103 27.5 195t81 165t139 115.5t193.5 42.5q97 0 172 -29t123 -77.5t79 -117t43.5 -143t12.5 -160.5l-4 -41h-695q2 -133 76.5 -222t208.5 -89q91 0 156 23t123 82l110 -91q-81 -86 -173 -122.5t-214 -36.5q-90 0 -165.5 26.5t-129 73.5t-91 110.5t-55.5 138.5 t-18 157zM203 1098l329 356l332 -356h-157l-175 192l-172 -192h-157zM274 575h543q-3 134 -72.5 213.5t-201.5 79.5q-126 0 -194.5 -82.5t-74.5 -210.5z" />
<glyph unicode="&#xeb;" horiz-adv-x="1054" d="M102 494q0 103 27.5 195t81 165t139 115.5t193.5 42.5q97 0 172 -29t123 -77.5t79 -117t43.5 -143t12.5 -160.5l-4 -41h-695q2 -133 76.5 -222t208.5 -89q91 0 156 23t123 82l110 -91q-81 -86 -173 -122.5t-214 -36.5q-90 0 -165.5 26.5t-129 73.5t-91 110.5t-55.5 138.5 t-18 157zM274 575h543q-3 134 -72.5 213.5t-201.5 79.5q-126 0 -194.5 -82.5t-74.5 -210.5zM283 1180v172h163v-172h-163zM616 1180v172h164v-172h-164z" />
<glyph unicode="&#xec;" horiz-adv-x="522" d="M-61 1413h204l215 -289h-168zM176 0v999h172v-999h-172z" />
<glyph unicode="&#xed;" horiz-adv-x="522" d="M150 1124l215 289h204l-272 -289h-147zM176 0v999h172v-999h-172z" />
<glyph unicode="&#xee;" horiz-adv-x="522" d="M-68 1098l330 356l332 -356h-158l-174 192l-172 -192h-158zM176 0v999h172v-999h-172z" />
<glyph unicode="&#xef;" horiz-adv-x="522" d="M12 1180v172h164v-172h-164zM176 0v999h172v-999h-172zM346 1180v172h164v-172h-164z" />
<glyph unicode="&#xf0;" horiz-adv-x="1187" d="M115 516q0 143 54.5 262.5t165.5 195t259 75.5q72 0 136.5 -28.5t100.5 -70.5q-37 171 -223 301l-88 -133l-117 82l82 121q-59 31 -168 74l80 121q127 -55 168 -76l70 104l115 -82l-64 -94q66 -45 120.5 -97t105.5 -127t86 -163.5t56 -207.5t21 -257q0 -106 -32.5 -201.5 t-92.5 -169.5t-152 -117.5t-204 -43.5t-204 43.5t-151.5 117.5t-91.5 169.5t-32 201.5zM285 516q0 -74 19 -141.5t55.5 -122t97 -87t137.5 -32.5t138 32.5t98 87t56 122t19 141.5q0 103 -33.5 188.5t-106 140t-171.5 54.5q-77 0 -137.5 -32.5t-97 -87t-55.5 -122t-19 -141.5 z" />
<glyph unicode="&#xf1;" horiz-adv-x="1155" d="M188 0v999h164v-153q49 78 133.5 124t176.5 46q91 0 160 -33t109 -91t59.5 -129t19.5 -155v-608h-164v588q0 272 -203 272q-119 0 -205 -88t-86 -209v-563h-164zM201 1174q0 111 50.5 178t145.5 67q55 0 100 -16.5t74.5 -40.5t55 -48t54 -40.5t58.5 -16.5q54 0 75.5 40 t21.5 116h116q0 -128 -56.5 -197t-162.5 -69q-46 0 -87 17t-70.5 41t-57 48t-58 41t-61.5 17q-94 0 -90 -137h-108z" />
<glyph unicode="&#xf2;" horiz-adv-x="1167" d="M102 496q0 142 60.5 259.5t171.5 187t250 69.5q210 0 345.5 -149.5t135.5 -366.5t-135.5 -366.5t-345.5 -149.5q-139 0 -250 69.5t-171.5 187t-60.5 259.5zM260 1413h205l215 -289h-168zM285 496q0 -76 17 -141t51.5 -118t93.5 -83.5t137 -30.5t137 30.5t93.5 83.5 t51.5 118t17 141t-17 141t-51.5 117.5t-93.5 83t-137 30.5t-137 -30.5t-93.5 -83t-51.5 -117.5t-17 -141z" />
<glyph unicode="&#xf3;" horiz-adv-x="1167" d="M102 496q0 142 60.5 259.5t171.5 187t250 69.5q210 0 345.5 -149.5t135.5 -366.5t-135.5 -366.5t-345.5 -149.5q-139 0 -250 69.5t-171.5 187t-60.5 259.5zM285 496q0 -76 17 -141t51.5 -118t93.5 -83.5t137 -30.5t137 30.5t93.5 83.5t51.5 118t17 141t-17 141 t-51.5 117.5t-93.5 83t-137 30.5t-137 -30.5t-93.5 -83t-51.5 -117.5t-17 -141zM471 1124l215 289h205l-273 -289h-147z" />
<glyph unicode="&#xf4;" horiz-adv-x="1167" d="M102 496q0 142 60.5 259.5t171.5 187t250 69.5q210 0 345.5 -149.5t135.5 -366.5t-135.5 -366.5t-345.5 -149.5q-139 0 -250 69.5t-171.5 187t-60.5 259.5zM254 1098l330 356l331 -356h-157l-174 192l-172 -192h-158zM285 496q0 -76 17 -141t51.5 -118t93.5 -83.5 t137 -30.5t137 30.5t93.5 83.5t51.5 118t17 141t-17 141t-51.5 117.5t-93.5 83t-137 30.5t-137 -30.5t-93.5 -83t-51.5 -117.5t-17 -141z" />
<glyph unicode="&#xf5;" horiz-adv-x="1167" d="M102 496q0 142 60.5 259.5t171.5 187t250 69.5q210 0 345.5 -149.5t135.5 -366.5t-135.5 -366.5t-345.5 -149.5q-139 0 -250 69.5t-171.5 187t-60.5 259.5zM207 1174q0 111 50.5 178t145.5 67q55 0 100 -16.5t74.5 -40.5t55 -48t54 -40.5t58.5 -16.5q54 0 75.5 40 t21.5 116h116q0 -128 -56.5 -197t-162.5 -69q-46 0 -87 17t-70.5 41t-56.5 48t-57.5 41t-61.5 17q-95 0 -91 -137h-108zM285 496q0 -76 17 -141t51.5 -118t93.5 -83.5t137 -30.5t137 30.5t93.5 83.5t51.5 118t17 141t-17 141t-51.5 117.5t-93.5 83t-137 30.5t-137 -30.5 t-93.5 -83t-51.5 -117.5t-17 -141z" />
<glyph unicode="&#xf6;" horiz-adv-x="1167" d="M102 496q0 142 60.5 259.5t171.5 187t250 69.5q210 0 345.5 -149.5t135.5 -366.5t-135.5 -366.5t-345.5 -149.5q-139 0 -250 69.5t-171.5 187t-60.5 259.5zM285 496q0 -76 17 -141t51.5 -118t93.5 -83.5t137 -30.5t137 30.5t93.5 83.5t51.5 118t17 141t-17 141 t-51.5 117.5t-93.5 83t-137 30.5t-137 -30.5t-93.5 -83t-51.5 -117.5t-17 -141zM334 1180v172h164v-172h-164zM668 1180v172h163v-172h-163z" />
<glyph unicode="&#xf7;" horiz-adv-x="1036" d="M143 424v123h750v-123h-750zM416 0v203h205v-203h-205zM416 752v202h205v-202h-205z" />
<glyph unicode="&#xf8;" horiz-adv-x="1167" d="M102 496q0 142 60.5 259.5t171.5 187t250 69.5q120 0 217 -51l20 34h84l-41 -73q94 -69 147.5 -182t53.5 -244q0 -217 -135.5 -366.5t-345.5 -149.5q-122 0 -222 53l-16 -31h-84l39 70q-93 70 -146 181.5t-53 242.5zM285 496q0 -187 92 -289l352 627q-58 34 -145 34 q-78 0 -137 -30.5t-93.5 -83t-51.5 -117.5t-17 -141zM434 160q66 -37 150 -37q78 0 137 30.5t93.5 83.5t51.5 118t17 141q0 189 -95 290z" />
<glyph unicode="&#xf9;" horiz-adv-x="1173" d="M166 406v593h164v-593q0 -56 9 -103t30 -90t62 -67.5t99 -24.5q119 0 206 93.5t87 215.5v569h164v-999h-164v160q-38 -71 -122.5 -127t-186.5 -56q-91 0 -160 35t-109 96t-59.5 135.5t-19.5 162.5zM264 1413h205l215 -289h-168z" />
<glyph unicode="&#xfa;" horiz-adv-x="1173" d="M166 406v593h164v-593q0 -56 9 -103t30 -90t62 -67.5t99 -24.5q119 0 206 93.5t87 215.5v569h164v-999h-164v160q-38 -71 -122.5 -127t-186.5 -56q-91 0 -160 35t-109 96t-59.5 135.5t-19.5 162.5zM475 1124l215 289h205l-272 -289h-148z" />
<glyph unicode="&#xfb;" horiz-adv-x="1173" d="M166 406v593h164v-593q0 -56 9 -103t30 -90t62 -67.5t99 -24.5q119 0 206 93.5t87 215.5v569h164v-999h-164v160q-38 -71 -122.5 -127t-186.5 -56q-91 0 -160 35t-109 96t-59.5 135.5t-19.5 162.5zM258 1098l330 356l332 -356h-158l-174 192l-172 -192h-158z" />
<glyph unicode="&#xfc;" horiz-adv-x="1173" d="M166 406v593h164v-593q0 -56 9 -103t30 -90t62 -67.5t99 -24.5q119 0 206 93.5t87 215.5v569h164v-999h-164v160q-38 -71 -122.5 -127t-186.5 -56q-91 0 -160 35t-109 96t-59.5 135.5t-19.5 162.5zM338 1180v172h164v-172h-164zM672 1180v172h164v-172h-164z" />
<glyph unicode="&#xfd;" horiz-adv-x="997" d="M41 999h180l285 -798l280 798h181l-541 -1429h-170l168 440zM387 1124l215 289h205l-272 -289h-148z" />
<glyph unicode="&#xfe;" horiz-adv-x="1191" d="M195 -438v1851h170v-547q108 154 307 154q127 0 220.5 -71t139 -187t45.5 -262t-45.5 -262t-139 -187t-220.5 -71q-200 0 -307 153v-571h-170zM348 500q0 -161 72 -266t211 -105t210.5 105t71.5 266q0 103 -29 184t-94 132.5t-159 51.5t-159.5 -51.5t-94.5 -132.5 t-29 -184z" />
<glyph unicode="&#xff;" horiz-adv-x="997" d="M41 999h180l285 -798l280 798h181l-541 -1429h-170l168 440zM250 1180v172h164v-172h-164zM584 1180v172h164v-172h-164z" />
<glyph unicode="&#x152;" horiz-adv-x="2254" d="M113 707q0 150 39.5 279.5t116 230.5t201.5 159t284 58q334 0 469 -260v239h919v-151h-747v-480h659v-151h-659v-473h747v-158h-919v240q-135 -260 -469 -260q-159 0 -284 58t-201.5 159t-116 230.5t-39.5 279.5zM285 707q0 -116 27 -216t81.5 -180.5t147 -127 t213.5 -46.5t213.5 46.5t147 127t81.5 180.5t27 216q0 92 -16.5 174t-53 155t-90 126t-133 83.5t-176.5 30.5t-176.5 -30.5t-133 -83.5t-90 -126t-53 -155t-16.5 -174z" />
<glyph unicode="&#x153;" horiz-adv-x="1822" d="M92 496q0 217 135.5 366.5t345.5 149.5q123 0 218.5 -55t154.5 -152q111 207 352 207q120 0 206.5 -43t134 -119t69 -166t21.5 -199l-5 -41h-694q2 -133 76 -222t209 -89q90 0 155.5 23t122.5 82l109 -91q-80 -86 -171.5 -122.5t-213.5 -36.5q-253 0 -369 200 q-59 -98 -155 -153t-220 -55q-210 0 -345.5 149.5t-135.5 366.5zM274 496q0 -76 17 -140.5t51.5 -116.5t93.5 -82t137 -30t137 30t93.5 82t51.5 116.5t17 140.5t-17 140.5t-51.5 116.5t-93.5 81.5t-137 29.5t-137 -29.5t-93.5 -81.5t-51.5 -116.5t-17 -140.5zM1030 575h543 q-3 134 -73 213.5t-202 79.5q-126 0 -194 -82.5t-74 -210.5z" />
<glyph unicode="&#x178;" horiz-adv-x="1294" d="M20 1413h201l426 -692l426 692h201l-541 -860v-553h-172v553zM397 1593v172h164v-172h-164zM731 1593v172h164v-172h-164z" />
<glyph unicode="&#x2000;" horiz-adv-x="934" />
<glyph unicode="&#x2001;" horiz-adv-x="1868" />
<glyph unicode="&#x2002;" horiz-adv-x="934" />
<glyph unicode="&#x2003;" horiz-adv-x="1868" />
<glyph unicode="&#x2004;" horiz-adv-x="622" />
<glyph unicode="&#x2005;" horiz-adv-x="467" />
<glyph unicode="&#x2006;" horiz-adv-x="311" />
<glyph unicode="&#x2007;" horiz-adv-x="311" />
<glyph unicode="&#x2008;" horiz-adv-x="233" />
<glyph unicode="&#x2009;" horiz-adv-x="373" />
<glyph unicode="&#x200a;" horiz-adv-x="103" />
<glyph unicode="&#x2010;" horiz-adv-x="890" d="M184 610v123h523v-123h-523z" />
<glyph unicode="&#x2011;" horiz-adv-x="890" d="M184 610v123h523v-123h-523z" />
<glyph unicode="&#x2012;" horiz-adv-x="890" d="M184 610v123h523v-123h-523z" />
<glyph unicode="&#x2013;" horiz-adv-x="849" d="M72 569v123h706v-123h-706z" />
<glyph unicode="&#x2014;" horiz-adv-x="1341" d="M-10 569v123h1362v-123h-1362z" />
<glyph unicode="&#x2018;" horiz-adv-x="405" d="M-10 1413h205l122 -495h-102z" />
<glyph unicode="&#x2019;" horiz-adv-x="409" d="M92 918l123 495h205l-225 -495h-103z" />
<glyph unicode="&#x201a;" horiz-adv-x="409" d="M92 -225l123 489h205l-225 -489h-103z" />
<glyph unicode="&#x201c;" horiz-adv-x="774" d="M72 1413h204l123 -495h-102zM379 1413h205l123 -495h-103z" />
<glyph unicode="&#x201d;" horiz-adv-x="716" d="M92 918l123 495h205l-225 -495h-103zM399 918l123 495h205l-225 -495h-103z" />
<glyph unicode="&#x201e;" horiz-adv-x="716" d="M92 -225l123 489h205l-225 -489h-103zM399 -225l123 489h205l-225 -489h-103z" />
<glyph unicode="&#x2022;" horiz-adv-x="782" d="M154 481q0 98 69.5 168t167.5 70t168 -70t70 -168t-70 -167.5t-168 -69.5t-167.5 69.5t-69.5 167.5z" />
<glyph unicode="&#x2026;" horiz-adv-x="1241" d="M104 0v203h205v-203h-205zM518 0v203h205v-203h-205zM932 0v203h205v-203h-205z" />
<glyph unicode="&#x202f;" horiz-adv-x="373" />
<glyph unicode="&#x2039;" horiz-adv-x="663" d="M143 510l377 332v-168l-192 -164l192 -162v-168z" />
<glyph unicode="&#x203a;" horiz-adv-x="663" d="M143 180v168l193 162l-193 164v168l377 -332z" />
<glyph unicode="&#x205f;" horiz-adv-x="467" />
<glyph unicode="&#x20ac;" horiz-adv-x="1157" d="M57 467l62 145h59q-4 62 -4 95q0 36 4 106h-121l62 145h80q47 218 172 348t325 130q235 0 379 -197l-123 -98q-86 116 -256 116q-130 0 -214.5 -80t-121.5 -219h527l-62 -145h-491q-4 -62 -4 -96q0 -53 6 -105h551l-62 -145h-465q37 -144 121.5 -226.5t216.5 -82.5 q161 0 250 121l115 -121q-140 -178 -365 -178q-103 0 -189 36.5t-147 103t-102 153.5t-63 194h-140z" />
<glyph unicode="&#x2122;" horiz-adv-x="976" d="M33 1335v78h381v-78h-146v-458h-90v458h-145zM479 877v536h99l135 -348l135 348h96v-536h-90v370l-104 -289h-74l-107 291v-372h-90z" />
<glyph unicode="&#x25fc;" horiz-adv-x="1003" d="M0 0v1004h1004v-1004h-1004z" />
<glyph unicode="&#xfb03;" horiz-adv-x="1564" d="M39 860v139h147v113q0 147 99 234.5t258 87.5q144 0 293 -111q105 111 276 111q148 0 307 -117l-82 -121q-4 4 -11 10.5t-29.5 23.5t-45.5 30t-57 23.5t-66 10.5q-105 0 -161 -49.5t-56 -136.5v-109h519v-999h-150v860h-369v-860h-157v860h-412v-860h-158v860h-145z M342 999h414v113q0 44 6 84q-3 1 -24 18t-44.5 34t-61 31.5t-73.5 14.5q-105 0 -161 -49.5t-56 -136.5v-109z" />
<glyph unicode="&#xfb04;" horiz-adv-x="1566" d="M31 860v139h147v113q0 146 98.5 234t247.5 88t301 -111q103 111 287 111q207 0 309 -138v-1106q1 -7 3.5 -16.5t17 -26t37.5 -16.5q9 0 23.5 2.5t25.5 4.5l10 3v-141q-66 -20 -119 -20q-149 0 -149 223v1022q-43 38 -78.5 53.5t-81.5 15.5q-91 0 -149 -50.5t-58 -135.5 v-109h227v-139h-227v-860h-158v860h-411v-860h-158v860h-145zM334 999h414q0 156 6 197q-81 98 -211 98q-95 0 -152 -50t-57 -136v-109z" />
</font>
</defs>
</svg>
