<?xml version="1.0" standalone="no"?>
<!DOCTYPE svg PUBLIC "-//W3C//DTD SVG 1.1//EN" "http://www.w3.org/Graphics/SVG/1.1/DTD/svg11.dtd" >
<svg xmlns="http://www.w3.org/2000/svg">
<metadata></metadata>
<defs>
<font id="hk_grotesklight" horiz-adv-x="1529" >
<font-face units-per-em="2048" ascent="1434" descent="-614" />
<missing-glyph horiz-adv-x="567" />
<glyph unicode="&#xfb01;" horiz-adv-x="976" d="M51 887v112h144q0 70 11 131.5t36.5 118t64 97t98 64.5t134.5 24q191 0 286 -115l-65 -98q-52 57 -101 78.5t-106 21.5q-231 0 -231 -322h507v-999h-120v887h-387v-887h-129v887h-142z" />
<glyph unicode="&#xfb02;" horiz-adv-x="974" d="M51 887v112h144v148q0 142 92 214.5t245 72.5q72 0 141 -26t158 -108v-1134l1 -1q11 -56 45 -56q12 0 29.5 3t29.5 6l12 3v-121q-51 -20 -106 -20q-34 0 -58.5 13t-39 33t-22.5 51.5t-10.5 60.5t-2.5 67v1048q-14 26 -56.5 46t-105.5 20q-121 0 -173 -41t-52 -145v-134 h235v-112h-235v-887h-129v887h-142z" />
<glyph horiz-adv-x="0" />
<glyph horiz-adv-x="682" />
<glyph unicode=" "  horiz-adv-x="567" />
<glyph unicode="&#x09;" horiz-adv-x="567" />
<glyph unicode="&#xa0;" horiz-adv-x="567" />
<glyph unicode="!" horiz-adv-x="548" d="M182 0v182h185v-182h-185zM195 1436h159l-28 -1063h-103z" />
<glyph unicode="&#x22;" horiz-adv-x="708" d="M145 1004v409h123v-409h-123zM440 1004v409h123v-409h-123z" />
<glyph unicode="#" horiz-adv-x="1478" d="M168 444v101h262l70 344h-250v98h270l94 447h109l-94 -437h332l92 437h108l-92 -445h242v-100h-262l-70 -344h250v-99h-271l-92 -446h-108l92 436h-332l-90 -436h-109l91 444h-242zM539 545h331l70 344h-332z" />
<glyph unicode="$" horiz-adv-x="1097" d="M86 362l135 44q11 -94 62 -160t124 -96.5t162 -30.5q131 0 211 66.5t80 193.5q0 75 -37.5 132t-97.5 94t-132.5 69.5t-145 67t-132.5 76t-97.5 107.5t-37.5 152q0 144 92 239.5t234 113.5v229h90v-227q235 -19 346 -222l-108 -73q-43 83 -116.5 126.5t-160.5 43.5 q-96 0 -165.5 -59.5t-69.5 -155.5q0 -71 37.5 -125.5t97.5 -90t132.5 -67t144.5 -67t132 -78.5t97.5 -113t37.5 -160q0 -177 -113.5 -288t-291.5 -117v-232h-90v234q-162 16 -279 113.5t-141 260.5z" />
<glyph unicode="%" horiz-adv-x="1527" d="M113 1122q0 53 12 105t37.5 100.5t74 78.5t113.5 30q59 0 106.5 -27.5t76.5 -73t44 -101t15 -114.5q0 -79 -24.5 -148t-80 -116t-131.5 -47q-66 0 -116 30t-76 78.5t-38.5 100t-12.5 104.5zM207 1122q0 -55 13 -103t48 -84t86 -36q47 0 79.5 36.5t45.5 85t13 101.5 q0 88 -36 156t-106 68q-37 0 -66 -20.5t-45 -54.5t-24 -71.5t-8 -77.5zM326 6l747 1393h119l-746 -1393h-120zM940 315q0 53 12.5 104.5t38.5 100t74.5 78t112.5 29.5q78 0 134.5 -48t81.5 -117t25 -149q0 -79 -24.5 -147.5t-79.5 -115t-131 -46.5q-66 0 -116 29.5 t-76.5 77.5t-39 99.5t-12.5 104.5zM1034 315q0 -55 13.5 -103t48.5 -84t86 -36q47 0 80 36.5t46 85t13 101.5q0 54 -13.5 102.5t-47 84t-82.5 35.5t-83 -35.5t-47.5 -84t-13.5 -102.5z" />
<glyph unicode="&#x26;" horiz-adv-x="1230" d="M115 317q0 67 35 136t81.5 118.5t103.5 94.5t90 65.5t52 30.5q-13 9 -42 39.5t-67.5 79.5t-66 116t-27.5 129q0 138 97.5 221t236.5 83q130 0 220 -87t90 -217q0 -55 -28 -113.5t-65.5 -101.5t-82.5 -82.5t-71.5 -57.5t-39.5 -26l309 -368q24 43 44 121t28 135l8 57 l115 -12q-3 -28 -9.5 -74t-36.5 -151.5t-71 -167.5l223 -260l-84 -76l-201 233q-95 -110 -203 -156t-245 -46q-174 0 -283.5 84.5t-109.5 252.5zM227 322q0 -61 24.5 -106t66.5 -69.5t90 -35.5t104 -11q227 0 371 172l-344 402l-55 -34q-177 -118 -234 -231q-23 -46 -23 -87 zM387 1124q0 -46 24.5 -100t58.5 -97.5t57 -69t34 -34.5h2q10 4 35 20t63.5 46.5t72 65t57.5 81t24 90.5q0 80 -62 133.5t-143 55.5q-89 0 -156 -50.5t-67 -140.5zM561 823h2h-2z" />
<glyph unicode="'" horiz-adv-x="348" d="M113 1032v410h123v-410h-123z" />
<glyph unicode="(" horiz-adv-x="630" d="M133 539q0 265 59.5 534t176.5 463h112q-112 -198 -174.5 -471t-62.5 -528q0 -253 61 -525.5t174 -470.5h-108q-107 157 -172.5 451.5t-65.5 546.5z" />
<glyph unicode=")" horiz-adv-x="630" d="M150 1536h112q117 -195 176.5 -464.5t59.5 -530.5q0 -259 -65 -550t-173 -450h-108q112 196 173.5 468.5t61.5 527.5q0 259 -64 530t-173 469z" />
<glyph unicode="*" horiz-adv-x="778" d="M96 1161l31 101l233 -103l-32 254h102l-33 -254l236 103l31 -101l-254 -41l176 -205l-82 -63l-125 235l-125 -235l-82 63l176 205z" />
<glyph unicode="+" horiz-adv-x="1241" d="M113 573v103h456v467h103v-467h456v-103h-456v-467h-103v467h-456z" />
<glyph unicode="," horiz-adv-x="460" d="M88 -225l105 489h178l-199 -489h-84z" />
<glyph unicode="-" horiz-adv-x="890" d="M195 637v102h501v-102h-501z" />
<glyph unicode="." horiz-adv-x="413" d="M111 0v182h192v-182h-192z" />
<glyph unicode="/" horiz-adv-x="942" d="M27 -430l747 1946h141l-747 -1946h-141z" />
<glyph unicode="0" horiz-adv-x="1200" d="M96 707q0 83 11.5 165t35 165.5t64.5 154t94.5 126t130.5 87t168 31.5q100 0 185 -40.5t145 -111t102.5 -164t63 -199.5t20.5 -219q0 -140 -32.5 -268t-93.5 -230t-158.5 -163t-217.5 -61q-112 0 -202.5 45.5t-148 118.5t-96.5 170.5t-55 195t-16 197.5zM236 707 q0 -80 10.5 -158.5t38 -159t68.5 -141t106.5 -99t148.5 -38.5q78 0 141 39.5t102.5 101t66 142.5t37 159.5t10.5 155.5q0 79 -11 157.5t-38.5 158t-67.5 139.5t-104.5 98t-143.5 38t-143 -38t-104.5 -98t-67.5 -140t-38 -158.5t-11 -158.5z" />
<glyph unicode="1" horiz-adv-x="782" d="M82 1087v121h172q84 0 132 51t48 130v24h129v-1413h-145v1087h-336z" />
<glyph unicode="2" horiz-adv-x="1142" d="M86 0v133q4 0 71 46.5t184 141.5t212 193q281 288 281 508q0 129 -66 212t-195 83q-77 0 -135.5 -33t-91 -88.5t-49 -115t-18.5 -124.5l-138 15q0 121 51 225t151 170t228 66q181 0 293.5 -112.5t112.5 -297.5q0 -262 -336 -602q-153 -150 -367 -299h773v-121h-961z" />
<glyph unicode="3" horiz-adv-x="1138" d="M76 391l131 15q0 -94 48.5 -164t124 -104t165.5 -34q87 0 162 32t125.5 101.5t50.5 163.5q0 71 -26 127t-71 90t-101.5 51t-121.5 17h-88v127h88q109 0 175.5 64t66.5 178q0 116 -76.5 184t-187.5 68q-114 0 -191 -69.5t-78 -184.5l-129 16q0 167 113.5 266t284.5 99 q169 0 283 -98.5t114 -264.5q0 -98 -45 -180.5t-129 -130.5q122 -38 184.5 -134t65.5 -227q0 -202 -132 -310.5t-337 -108.5q-133 0 -237 44.5t-168 139t-64 227.5z" />
<glyph unicode="4" horiz-adv-x="1159" d="M66 387v82l661 944h131v-905h225v-121h-225v-387h-139v387h-653zM229 508h490v688z" />
<glyph unicode="5" horiz-adv-x="1148" d="M135 367l125 43q10 -45 25.5 -85.5t43 -82.5t62.5 -72.5t86.5 -50t112.5 -19.5q92 0 166 53.5t111.5 134t37.5 169.5q0 140 -85.5 241t-229.5 101q-84 0 -162 -41.5t-125 -114.5l-119 62l121 708h684v-125h-577l-78 -485q138 115 295 115q171 0 297.5 -137t126.5 -326 q0 -124 -62.5 -233.5t-170 -175.5t-230.5 -66q-165 0 -293 111t-162 276z" />
<glyph unicode="6" horiz-adv-x="1171" d="M156 449q0 137 67 241l408 723h155l-311 -536q65 18 139 18q127 0 232.5 -57t167 -160t61.5 -229q0 -125 -58.5 -232t-165.5 -172t-237 -65q-190 0 -324 137t-134 332zM293 446q0 -140 94 -238.5t227 -98.5q135 0 229.5 98.5t94.5 238.5t-94.5 239t-229.5 99 q-133 0 -227 -99t-94 -239z" />
<glyph unicode="7" horiz-adv-x="1060" d="M76 1288v125h909v-72l-606 -1341h-158l600 1288h-745z" />
<glyph unicode="8" horiz-adv-x="1187" d="M127 387q0 131 65.5 228.5t188.5 146.5q-87 45 -134.5 127.5t-47.5 183.5q0 166 113.5 263.5t281.5 97.5t281.5 -97.5t113.5 -263.5q0 -100 -47 -182.5t-135 -128.5q122 -50 188 -147.5t66 -227.5q0 -100 -37.5 -179.5t-102.5 -128t-148.5 -74t-180.5 -25.5 q-96 0 -179 25.5t-147.5 74.5t-101.5 128t-37 179zM264 399q0 -96 48 -166t121 -102.5t159 -32.5q87 0 160 32.5t120.5 102.5t47.5 166q0 140 -95 219.5t-233 79.5q-139 0 -233.5 -79.5t-94.5 -219.5zM338 1071q0 -119 72.5 -193.5t187.5 -74.5q109 0 184.5 69t75.5 183 q0 119 -75.5 187.5t-186.5 68.5q-102 0 -180 -65t-78 -175z" />
<glyph unicode="9" horiz-adv-x="1159" d="M106 965q0 125 58.5 232t165.5 172t237 65q125 0 230.5 -62.5t167 -170.5t61.5 -236q0 -136 -68 -242l-407 -723h-154l310 537q-68 -19 -140 -19q-194 0 -327.5 127.5t-133.5 319.5zM244 967q0 -140 94 -239t229 -99q133 0 227.5 99t94.5 239t-94.5 239t-227.5 99 q-135 0 -229 -99t-94 -239z" />
<glyph unicode=":" horiz-adv-x="409" d="M113 0v182h184v-182h-184zM113 772v182h184v-182h-184z" />
<glyph unicode=";" horiz-adv-x="491" d="M88 -225l105 489h178l-199 -489h-84zM195 772v182h184v-182h-184z" />
<glyph unicode="&#x3c;" horiz-adv-x="1234" d="M141 674l885 502l61 -107l-720 -395l720 -395l-61 -107z" />
<glyph unicode="=" horiz-adv-x="1095" d="M174 440v125h748v-125h-748zM174 778v125h748v-125h-748z" />
<glyph unicode="&#x3e;" horiz-adv-x="1234" d="M147 279l721 395l-721 395l62 107l885 -502l-885 -502z" />
<glyph unicode="?" horiz-adv-x="1032" d="M113 1073q1 109 56 192t144 125.5t197 43.5q114 0 206 -40.5t148 -123t56 -195.5q0 -68 -19 -120t-48.5 -83.5t-66 -56t-73 -43.5t-66 -39.5t-48.5 -51.5t-19 -71v-241h-125v241q0 58 18.5 100t47.5 67.5t65 45.5t71.5 40.5t64.5 45.5t47.5 68.5t18.5 101.5 q0 116 -76 175t-194 59q-71 0 -131.5 -26.5t-100 -82.5t-40.5 -131h-133zM428 0v182h184v-182h-184z" />
<glyph unicode="@" horiz-adv-x="2002" d="M127 543q0 180 70.5 344.5t189 284t281.5 190t342 70.5t342.5 -70.5t281.5 -189t188 -283.5t70 -346q0 -87 -16 -169.5t-51.5 -160t-87 -135.5t-128.5 -92.5t-169 -34.5q-121 0 -188.5 78.5t-47.5 201.5q-59 -75 -145 -118t-180 -43q-99 0 -170.5 52.5t-104.5 134 t-33 179.5q0 103 31.5 207t88.5 192t148 143.5t199 55.5q94 0 169.5 -54t92.5 -144l31 149h142q-15 -79 -56 -238t-65.5 -290.5t-24.5 -247.5q0 -54 33 -83.5t86 -29.5q67 0 121.5 29.5t88.5 76t57 108t32.5 121t9.5 118.5q0 152 -59 291t-159 239.5t-238 160.5t-289 60 t-289 -60t-238 -161t-159.5 -240.5t-59.5 -291.5t59.5 -292t159.5 -241t238 -161t289 -60q119 0 241 39l52 -129q-145 -51 -293 -51q-179 0 -342.5 71t-282 190.5t-188.5 284.5t-70 345zM702 430q0 -99 49 -159t146 -60q69 0 128 29t99.5 76.5t70 108.5t43 125t13.5 126 q0 99 -48.5 158t-145.5 59q-85 0 -155 -43.5t-112.5 -112.5t-65 -148.5t-22.5 -158.5z" />
<glyph unicode="A" horiz-adv-x="1290" d="M66 0l524 1413h112l523 -1413h-156l-111 307h-624l-111 -307h-157zM379 442h534l-266 758z" />
<glyph unicode="B" horiz-adv-x="1220" d="M213 0v1413h379q85 0 165.5 -26.5t144.5 -73.5t103 -119t39 -156q0 -175 -186 -297q115 -45 185.5 -140.5t70.5 -215.5q0 -87 -39 -161t-102.5 -122t-143 -75t-163.5 -27h-453zM356 133h314q120 0 208.5 73.5t88.5 188.5q0 121 -85.5 188.5t-207.5 67.5h-318v-518z M356 786h232q131 0 216 59.5t85 172.5q0 120 -85.5 192t-207.5 72h-240v-496z" />
<glyph unicode="C" horiz-adv-x="1443" d="M139 707q0 121 24 228.5t74 199.5t123 158.5t177 104.5t229 38q196 0 342 -95t225 -278l-133 -55q-29 103 -96 170.5t-151.5 96t-188.5 28.5q-99 0 -180 -31.5t-136.5 -85.5t-93 -129t-54.5 -160t-17 -180q0 -99 17 -187t55 -165t93.5 -132.5t137 -87.5t182.5 -32 q320 0 432 297l135 -56q-77 -183 -223.5 -278.5t-343.5 -95.5q-156 0 -278 57.5t-197.5 158t-114.5 230t-39 281.5z" />
<glyph unicode="D" horiz-adv-x="1398" d="M195 0v1413h354q342 0 525 -184t183 -533q-1 -336 -186 -516t-524 -180h-352zM340 133h182q127 0 232.5 35t185.5 103.5t125 180t45 255.5q0 280 -142.5 428.5t-422.5 148.5h-205v-1151z" />
<glyph unicode="E" horiz-adv-x="1269" d="M209 0v1413h911v-125h-768v-520h660v-123h-660v-514h768v-131h-911z" />
<glyph unicode="F" horiz-adv-x="1146" d="M209 0v1413h891v-125h-748v-520h660v-123h-660v-645h-143z" />
<glyph unicode="G" horiz-adv-x="1533" d="M139 707q0 121 24 228.5t74 199.5t123 158.5t177 104.5t229 38q196 0 342 -95t225 -278l-137 -55q-64 140 -173.5 214t-258.5 74q-123 0 -217.5 -46.5t-151 -128t-84.5 -183.5t-28 -221q0 -125 28 -231t85 -190t152 -131.5t220 -47.5q91 0 172 32t143.5 91t99.5 150.5 t38 203.5h-324v115h459v-709h-123v266q-58 -131 -173.5 -208.5t-291.5 -77.5q-156 0 -278 57.5t-197.5 158t-114.5 230t-39 281.5z" />
<glyph unicode="H" horiz-adv-x="1433" d="M209 0v1413h143v-645h729v645h144v-1413h-144v645h-729v-645h-143z" />
<glyph unicode="I" horiz-adv-x="534" d="M195 0v1413h145v-1413h-145z" />
<glyph unicode="J" horiz-adv-x="1046" d="M35 389l141 23q4 -60 22 -113t51 -97t86.5 -70t121.5 -26q83 0 139.5 28.5t86 83t41 117.5t11.5 148v805h-532v125h678v-917q0 -516 -424 -516q-185 0 -297 116.5t-125 292.5z" />
<glyph unicode="K" horiz-adv-x="1382" d="M209 0v1413h143v-842l789 842h186l-524 -553l524 -860h-174l-451 758l-350 -367v-391h-143z" />
<glyph unicode="L" horiz-adv-x="1048" d="M209 0v1413h143v-1282h604v-131h-747z" />
<glyph unicode="M" horiz-adv-x="1738" d="M205 0v1413h250l413 -1153l412 1153h250v-1413h-148v1307l-430 -1184h-170l-428 1184v-1307h-149z" />
<glyph unicode="N" horiz-adv-x="1390" d="M205 0v1413h219l614 -1261v1261h148v-1413h-221l-611 1262v-1262h-149z" />
<glyph unicode="O" d="M137 707q0 120 23.5 227.5t74 199t123.5 158t177 104.5t229 38q157 0 279 -57.5t197.5 -158.5t114 -230.5t38.5 -280.5t-38.5 -280.5t-114 -230.5t-197.5 -158.5t-279 -57.5q-125 0 -229 38t-177 104.5t-123.5 158t-74 199t-23.5 227.5zM276 707q0 -95 17.5 -180.5 t55.5 -161.5t94 -131t138.5 -87t182.5 -32q125 0 220.5 48.5t152.5 132.5t85.5 187.5t28.5 223.5t-28.5 223.5t-85.5 187t-152.5 132t-220.5 48.5q-100 0 -182.5 -32t-138.5 -87t-94 -130.5t-55.5 -161t-17.5 -180.5z" />
<glyph unicode="P" horiz-adv-x="1118" d="M205 0v1413h391q204 0 324 -103t120 -286q0 -181 -119.5 -281t-324.5 -100h-246v-643h-145zM350 770h246q144 0 223.5 65.5t79.5 188.5q0 124 -80 192t-223 68h-246v-514z" />
<glyph unicode="Q" d="M137 707q0 120 23.5 227.5t74 199t123.5 158t177 104.5t229 38q157 0 279 -57.5t197.5 -158t114 -230t38.5 -281.5q0 -316 -158 -517l197 -198l-86 -88l-197 196q-152 -120 -385 -120q-125 0 -229 38t-177 104.5t-123.5 158t-74 199t-23.5 227.5zM283 707 q0 -95 16.5 -180.5t54 -162.5t92.5 -132.5t136.5 -88t181.5 -32.5q169 0 287 88l-201 207l84 90l201 -205q112 157 112 416q0 120 -28 224t-84 189t-151.5 134t-219.5 49q-100 0 -181.5 -32.5t-136.5 -88t-92.5 -132.5t-54 -162.5t-16.5 -180.5z" />
<glyph unicode="R" horiz-adv-x="1196" d="M209 -2v1413h399q188 0 311 -105.5t123 -285.5q0 -139 -82 -237.5t-221 -127.5l379 -657h-168l-368 637h-230v-637h-143zM354 772h279q119 8 192.5 73.5t73.5 178.5q0 121 -80.5 189.5t-208.5 68.5h-256v-510z" />
<glyph unicode="S" horiz-adv-x="1118" d="M96 352l133 45q11 -93 62.5 -158t125 -94.5t163.5 -29.5q132 0 211 65.5t79 194.5q0 60 -23.5 109.5t-62.5 83.5t-90 63t-107.5 53.5t-113 49.5t-107.5 57t-90 70t-62.5 93t-23.5 123q0 159 109 258t268 99q263 0 383 -217l-106 -72q-43 82 -116.5 123t-160.5 41 q-98 0 -167.5 -58.5t-69.5 -154.5q0 -73 37.5 -128.5t97.5 -91.5t132.5 -67.5t145 -66.5t132.5 -78t97.5 -112.5t37.5 -160.5q0 -186 -121 -296.5t-309 -110.5q-88 0 -168 23t-146.5 67.5t-111.5 116t-58 161.5z" />
<glyph unicode="T" horiz-adv-x="1159" d="M25 1294v119h1110v-119h-484v-1294h-143v1294h-483z" />
<glyph unicode="U" horiz-adv-x="1333" d="M178 590v823h146v-833q0 -105 17 -185.5t55 -145t106 -98.5t164 -34q77 0 136 23t97 63t62.5 99.5t34.5 127t10 150.5v833h145v-813q0 -139 -27.5 -250t-84.5 -195t-151.5 -129.5t-221.5 -45.5t-222 45.5t-152.5 128.5t-85.5 192t-28 244z" />
<glyph unicode="V" horiz-adv-x="1257" d="M37 1413h149l443 -1231l440 1231h152l-527 -1413h-129z" />
<glyph unicode="W" horiz-adv-x="1884" d="M37 1413h149l340 -1243l357 1120h118l357 -1120l340 1243h149l-395 -1413h-164l-344 1053l-348 -1053h-164z" />
<glyph unicode="X" horiz-adv-x="1222" d="M66 0l464 707l-462 706h172l370 -594l373 594h172l-463 -706l465 -707h-172l-377 584l-370 -584h-172z" />
<glyph unicode="Y" horiz-adv-x="1251" d="M25 1413h168l432 -711l434 711h168l-529 -860v-553h-145v553z" />
<glyph unicode="Z" horiz-adv-x="1306" d="M104 0v119l910 1169h-864v125h1038v-125l-907 -1155h907v-133h-1084z" />
<glyph unicode="[" horiz-adv-x="720" d="M211 -436v1972h350v-80h-235v-1810h235v-82h-350z" />
<glyph unicode="\" horiz-adv-x="942" d="M27 1516h141l747 -1946h-141z" />
<glyph unicode="]" horiz-adv-x="720" d="M160 -354h235v1810h-235v80h350v-1972h-350v82z" />
<glyph unicode="^" horiz-adv-x="1183" d="M240 846l354 571l352 -571h-143l-209 338l-211 -338h-143z" />
<glyph unicode="_" horiz-adv-x="993" d="M113 0h768v-102h-768v102z" />
<glyph unicode="a" horiz-adv-x="1064" d="M111 272q0 150 95 223.5t261 73.5h317q0 161 -60.5 243.5t-203.5 82.5q-87 0 -157.5 -41t-114.5 -104l-101 77q70 96 162 142.5t219 46.5q179 0 278 -107.5t99 -292.5v-616h-114l-7 182q-69 -105 -154.5 -153.5t-209.5 -48.5q-131 0 -220 80.5t-89 211.5zM252 272 q0 -47 17 -80.5t47 -52t65.5 -27t77.5 -8.5q92 0 167.5 51.5t116.5 131t41 166.5h-303q-99 0 -164 -47t-65 -134z" />
<glyph unicode="b" horiz-adv-x="1198" d="M217 0v1413h133v-557q109 166 316 166q125 0 217 -70.5t137 -187t45 -264.5q0 -147 -45 -263.5t-137 -186.5t-217 -70q-206 0 -316 163v-143h-133zM340 498q0 -81 17 -151t50.5 -127t91 -89.5t132.5 -32.5q99 0 167.5 57.5t98 145.5t29.5 197q0 110 -29.5 199t-98 147.5 t-167.5 58.5t-166.5 -58.5t-96 -147t-28.5 -199.5z" />
<glyph unicode="c" horiz-adv-x="1040" d="M129 498q0 104 27 196t78 164.5t134 115t187 42.5q132 0 231 -67.5t152 -190.5l-129 -56q-25 91 -93.5 145t-160.5 54q-76 0 -134 -36.5t-90 -97t-47.5 -128.5t-15.5 -141q0 -58 9 -113.5t30.5 -109t53.5 -93t82 -64t112 -24.5q92 0 160.5 54.5t93.5 144.5l117 -51 q-43 -126 -139 -194t-230 -68q-84 0 -154.5 27.5t-120.5 76t-85 114t-51.5 141.5t-16.5 159z" />
<glyph unicode="d" horiz-adv-x="1187" d="M123 500q0 147 45 263.5t136.5 186.5t215.5 70q211 0 316 -164v557h137v-1413h-137v143q-104 -163 -316 -163q-124 0 -215.5 70t-136.5 186.5t-45 263.5zM260 498q0 -109 30 -195.5t99 -142.5t168 -56q98 0 165 56t95.5 142.5t28.5 195.5q0 82 -16.5 151.5t-50.5 125 t-91 87t-131 31.5q-75 0 -133 -31.5t-93.5 -87t-53 -125.5t-17.5 -151z" />
<glyph unicode="e" horiz-adv-x="1048" d="M113 494q0 104 27 196t78 164.5t134.5 115t188.5 42.5q94 0 166.5 -28.5t119 -77t76 -117.5t41.5 -144.5t12 -163.5l-2 -28h-698v-7q0 -140 77 -240q79 -102 222 -102q93 0 161.5 24.5t127.5 86.5l90 -74q-78 -83 -167 -118t-208 -35q-109 0 -195.5 40.5t-140.5 110.5 t-82 160.5t-28 194.5zM256 569h573q0 144 -73.5 232t-214.5 88q-91 0 -156.5 -45t-96 -115.5t-32.5 -159.5z" />
<glyph unicode="f" horiz-adv-x="710" d="M76 887v110h182v191q0 115 76 180.5t194 65.5q74 0 156 -35l-29 -111q-43 29 -106 29q-65 0 -110.5 -36t-45.5 -97v-185h297v-112h-297v-887h-135v887h-182z" />
<glyph unicode="g" horiz-adv-x="1060" d="M117 -158q0 53 18 107l189 80q-93 36 -141 100t-48 115q0 113 119 235q-53 79 -53 189q0 156 99 250t251 94q107 0 186 -43l160 139l74 -102l-148 -107q80 -97 80 -227q0 -155 -99 -245.5t-253 -90.5q-120 0 -217 61q-82 -77 -82 -143q0 -25 12 -44.5t35.5 -31 t47.5 -19.5t60.5 -11.5t61.5 -4.5t63 -2t54 -2q153 -5 209 -16q161 -31 194 -159q10 -36 10 -81q0 -78 -28 -139t-72.5 -98.5t-104.5 -61.5t-119 -33.5t-122 -9.5q-81 0 -154.5 16.5t-138.5 50t-104 94t-39 140.5zM238 -142q0 -6 2 -15q1 -12 5.5 -27t14.5 -31.5t25 -32.5 t39.5 -31t55 -26.5t75 -18t96.5 -6.5q35 0 71 4t81 17t79.5 34t58 58.5t23.5 87.5q0 41 -17.5 70.5t-42 45t-65.5 24t-74 10.5t-81 2q-97 0 -148 2l-196 -154q-2 -2 -2 -13zM338 670q0 -97 59.5 -159t153.5 -62t153.5 62t59.5 159q0 98 -59.5 161.5t-153.5 63.5 t-153.5 -63.5t-59.5 -161.5z" />
<glyph unicode="h" horiz-adv-x="1144" d="M201 0v1413h135v-584q46 82 135.5 133.5t187.5 51.5q88 0 154 -32t105 -88t58 -125.5t19 -152.5v-616h-137v592q0 58 -10 107t-33 93.5t-67.5 69.5t-106.5 25q-129 -1 -220 -101q-85 -94 -85 -218v-17v-551h-135z" />
<glyph unicode="i" horiz-adv-x="544" d="M190 1227v194h164v-194h-164zM205 0v999h137v-999h-137z" />
<glyph unicode="j" horiz-adv-x="534" d="M-57 -408l28 101q60 -17 117 -17q62 0 89.5 41t27.5 101v1181h137v-1159q0 -129 -62 -203.5t-188 -74.5q-31 0 -68.5 7.5t-59.5 14.5zM188 1233v188h164v-188h-164z" />
<glyph unicode="k" horiz-adv-x="1091" d="M205 0v1413h137v-969l457 555h170l-320 -368l385 -631h-157l-312 539l-223 -246v-293h-137z" />
<glyph unicode="l" horiz-adv-x="567" d="M203 205v1208h137v-1259q0 -37 25 -51q8 -5 20 -5q23 0 48 3t39 5l13 3v-109q-53 -20 -127 -20q-32 0 -57 7t-41 17t-27.5 29.5t-17 35t-8.5 43t-3.5 44.5t-0.5 49z" />
<glyph unicode="m" horiz-adv-x="1734" d="M203 0v999h137v-180q31 88 105 143.5t169 55.5q110 0 192.5 -53.5t119.5 -155.5q44 101 121.5 154t183.5 53q91 0 159 -32.5t107.5 -89.5t58.5 -128.5t19 -155.5v-610h-137v594q0 58 -10.5 108.5t-33.5 98t-68 75t-107 27.5q-120 0 -191.5 -99t-71.5 -233v-571h-137v598 q0 59 -10 109t-33 96.5t-67.5 73t-106.5 26.5q-120 0 -191 -99t-71 -233v-571h-137z" />
<glyph unicode="n" horiz-adv-x="1142" d="M201 0v999h135v-165q47 81 132.5 131.5t182.5 50.5q91 0 158.5 -32.5t106.5 -90t58 -128t19 -155.5v-610h-135v594q0 57 -10 105.5t-33.5 92t-67.5 68.5t-106 25q-125 0 -215 -94t-90 -222v-569h-135z" />
<glyph unicode="o" horiz-adv-x="1167" d="M117 496q0 142 58.5 259.5t166 187t242.5 69.5t242.5 -69.5t166 -187t58.5 -259.5t-58.5 -259.5t-166 -187t-242.5 -69.5t-242.5 69.5t-166 187t-58.5 259.5zM270 496q0 -81 17.5 -150t53.5 -125t98.5 -88.5t144.5 -32.5t144 32.5t98 88.5t53.5 125t17.5 150t-17.5 149.5 t-53.5 125t-98 88.5t-144 32t-144 -32t-98.5 -88.5t-54 -125t-17.5 -149.5z" />
<glyph unicode="p" horiz-adv-x="1169" d="M205 -438v1437h135v-143q108 164 315 164q186 0 293 -147t107 -373t-107 -373t-293 -147q-205 0 -315 163v-581h-135zM330 498q0 -81 17 -151t50.5 -127t91 -89.5t132.5 -32.5t133 32.5t92 89.5t51.5 127t17.5 151q0 82 -17.5 152.5t-51.5 127t-92 89t-133 32.5 q-99 0 -166.5 -57.5t-96 -145t-28.5 -198.5z" />
<glyph unicode="q" horiz-adv-x="1191" d="M133 500q0 226 106.5 373t292.5 147q206 0 316 -164v143h137v-1437h-137v581q-107 -163 -316 -163q-186 0 -292.5 147t-106.5 373zM272 498q0 -109 29.5 -197t98 -145.5t167.5 -57.5q75 0 132.5 32.5t91 89.5t50.5 127t17 151q0 111 -28.5 199t-96 146t-166.5 58 q-75 0 -133 -33t-92.5 -90t-52 -128t-17.5 -152z" />
<glyph unicode="r" horiz-adv-x="729" d="M176 0v999h141v-200q22 95 108 155t179 60q108 0 166 -47l-45 -113q-53 45 -131 45q-90 0 -154 -65.5t-94.5 -173t-30.5 -244.5v-416h-139z" />
<glyph unicode="s" horiz-adv-x="890" d="M96 221l115 66q25 -79 96 -132t156 -53q86 0 145.5 40.5t59.5 131.5q0 48 -23.5 81.5t-61.5 50.5t-87 32t-100.5 25.5t-100.5 31t-87 47t-61.5 76.5t-23.5 117q0 119 90.5 199t214.5 80q114 0 196.5 -53.5t129.5 -139.5l-109 -63q-69 129 -217 129q-77 0 -129.5 -40 t-52.5 -114q0 -40 24 -67.5t62.5 -41.5t88.5 -27.5t101.5 -24t101.5 -32.5t88.5 -51.5t62.5 -83t24 -124.5q0 -134 -100 -217.5t-240 -83.5q-132 0 -231.5 70t-131.5 171z" />
<glyph unicode="t" horiz-adv-x="673" d="M72 887v112h151v224l144 133v-357h254v-112h-254v-633q0 -156 104 -156q38 0 69 4t42 8l12 5v-119q-47 -16 -131 -16q-238 0 -238 280v627h-153z" />
<glyph unicode="u" horiz-adv-x="1171" d="M178 403v596h135v-600q0 -46 5.5 -86.5t20.5 -82t38 -71.5t62 -48.5t89 -18.5q124 0 216 101.5t92 230.5v575h135v-999h-135v174q-33 -72 -120 -134.5t-198 -62.5q-90 0 -157.5 34t-106 94.5t-57.5 135t-19 162.5z" />
<glyph unicode="v" horiz-adv-x="931" d="M37 999h149l281 -821l281 821h147l-367 -999h-125z" />
<glyph unicode="w" horiz-adv-x="1421" d="M59 999h146l209 -825l233 825h127l236 -823l207 823h145l-277 -999h-133l-241 829l-240 -827h-135z" />
<glyph unicode="x" horiz-adv-x="913" d="M53 0l334 504l-334 495h166l238 -378l237 378h164l-332 -495l332 -504h-164l-237 385l-238 -385h-166z" />
<glyph unicode="y" horiz-adv-x="974" d="M51 999h152l295 -833l288 833h152l-530 -1429h-140l164 434z" />
<glyph unicode="z" horiz-adv-x="931" d="M80 0v106l616 781h-587v112h743v-118l-606 -764h606v-117h-772z" />
<glyph unicode="{" horiz-adv-x="778" d="M174 393v127q131 49 131 207v547q0 130 46.5 196t158.5 66h53q27 0 41 -2v-80q-25 4 -59 4q-115 0 -115 -96v-647q0 -92 -43.5 -154t-140.5 -112q93 -42 138.5 -90.5t45.5 -125.5v-466q0 -203 137 -203q13 0 37 4v-78q-16 -2 -43 -2h-74q-92 0 -151 94q-31 51 -31 178 v469q0 104 -131 164z" />
<glyph unicode="|" horiz-adv-x="520" d="M211 -512v2046h98v-2046h-98z" />
<glyph unicode="}" horiz-adv-x="778" d="M174 -432q24 -4 37 -4q137 0 137 203v466q0 78 47.5 127t136.5 89q-101 53 -142.5 114.5t-41.5 151.5v647q0 96 -115 96q-34 0 -59 -4v80q14 2 41 2h53q112 0 158.5 -66t46.5 -196v-547q0 -158 131 -207v-127q-131 -60 -131 -164v-469q0 -127 -31 -178q-59 -94 -151 -94 h-74q-27 0 -43 2v78z" />
<glyph unicode="~" horiz-adv-x="954" d="M113 406q0 108 47 176.5t139 68.5q53 0 96 -18.5t72 -45t54.5 -53t56 -45t63.5 -18.5q107 0 107 174h96q0 -126 -54.5 -196t-154.5 -70q-44 0 -83 19t-68 46t-57 54t-60 46t-66 19q-55 0 -78.5 -44.5t-21.5 -112.5h-88z" />
<glyph unicode="&#xa1;" horiz-adv-x="528" d="M172 1253v183h184v-183h-184zM184 0l29 1063h102l29 -1063h-160z" />
<glyph unicode="&#xa2;" horiz-adv-x="1007" d="M115 498q0 97 24 184t70 157.5t119.5 116t165.5 56.5v188h98v-188q113 -12 201.5 -79.5t132.5 -174.5l-135 -56q-21 82 -90 131.5t-156 49.5q-76 0 -133 -34t-89 -91.5t-47.5 -123t-15.5 -136.5q0 -72 15 -137.5t47 -122.5t89.5 -91t133.5 -34q88 0 156.5 49t89.5 131 l124 -51q-38 -112 -123.5 -179.5t-199.5 -78.5v-189h-98v191q-92 10 -165 55t-119.5 115t-70.5 157.5t-24 184.5z" />
<glyph unicode="&#xa3;" horiz-adv-x="1024" d="M14 0v90q10 8 26.5 23t58.5 59t74 86.5t58.5 98.5t26.5 102q0 36 -7 82.5t-15 74.5l-7 29h-213v109h187q-51 131 -51 256q0 113 43.5 207t132 153.5t207.5 59.5q127 0 222 -78t140 -201l-102 -37q-35 93 -103 150t-157 57q-127 0 -201 -88t-74 -223q0 -53 14 -117 t28 -101l13 -38h469v-109h-442q25 -100 25 -184q0 -55 -19.5 -111.5t-47.5 -98t-55.5 -75t-46.5 -50.5l-20 -17h840v-109h-1004z" />
<glyph unicode="&#xa4;" horiz-adv-x="1134" d="M37 1032l133 137l160 -219q106 82 237 82q136 0 238 -82l172 205l135 -137l-225 -146q76 -110 76 -243q0 -137 -76 -242l225 -176l-133 -137l-174 233q-106 -82 -238 -82q-131 0 -237 82l-146 -233l-133 137l197 176q-76 107 -76 242q0 134 76 241zM315 629 q0 -118 69.5 -193.5t182.5 -75.5t182.5 75.5t69.5 193.5t-69.5 193t-182.5 75t-182.5 -75t-69.5 -193z" />
<glyph unicode="&#xa5;" horiz-adv-x="1273" d="M23 1413h184l430 -694l430 694h184l-475 -758h238v-133h-299v-215h299v-131h-299v-170h-156v170h-299v131h299v215h-299v133h238z" />
<glyph unicode="&#xa6;" horiz-adv-x="522" d="M217 -307v727h90v-727h-90zM217 731v744h90v-744h-90z" />
<glyph unicode="&#xa7;" horiz-adv-x="876" d="M53 262l117 39q60 -199 287 -199q46 0 85.5 7.5t77 26t59 55t21.5 88.5q0 40 -20.5 68.5t-55 44.5t-79.5 28t-94.5 21.5t-99 21.5t-94.5 32t-79.5 48t-55 75t-20.5 109t28.5 119t76.5 98q-49 32 -76 84t-27 113q0 134 101.5 213.5t238.5 79.5q131 0 228 -67.5t133 -190.5 l-119 -33q-50 170 -244 170q-88 0 -152.5 -45t-64.5 -133q0 -48 33 -78.5t85.5 -45.5t116.5 -27t128 -30t116.5 -46t85.5 -84t33 -136q0 -62 -25.5 -119t-72.5 -96q98 -70 98 -201q0 -75 -31 -132.5t-83.5 -91t-116 -50t-135.5 -16.5q-150 0 -256 71t-148 209zM225 729 q0 -45 27 -78.5t74.5 -54t90.5 -32.5t97 -23t72 -17q114 50 114 172q0 39 -20 70.5t-48 50t-71.5 34t-76.5 22.5t-77.5 15.5t-60.5 12.5q-57 -22 -89 -67t-32 -105z" />
<glyph unicode="&#xa9;" horiz-adv-x="1718" d="M113 707q0 205 100 379.5t271.5 276t373.5 101.5q204 0 376 -101.5t272 -275.5t100 -380q0 -123 -37.5 -239t-107 -209t-161 -163t-206 -108.5t-236.5 -38.5q-121 0 -234.5 38.5t-205 108.5t-161 163t-107 209t-37.5 239zM219 707q0 -173 87 -323t234.5 -238.5 t317.5 -88.5q171 0 318.5 88.5t234 238.5t86.5 323q0 130 -51.5 249.5t-137.5 207t-204 140t-246 52.5q-127 0 -245.5 -52.5t-204.5 -140t-137.5 -207.5t-51.5 -249zM528 705q0 113 38 201.5t118.5 143t192.5 54.5q98 0 178 -47.5t121 -132.5l-99 -45q-26 56 -80 86t-120 30 q-121 0 -181.5 -83.5t-60.5 -206.5q0 -58 13.5 -108.5t41 -92t75 -65t109.5 -23.5q66 0 120 29.5t81 86.5l101 -45q-39 -86 -119.5 -134t-179.5 -48q-112 0 -192.5 54.5t-118.5 143.5t-38 202z" />
<glyph unicode="&#xaa;" horiz-adv-x="800" d="M100 913q0 106 66.5 155.5t183.5 49.5h223q0 236 -186 236q-57 0 -106 -29t-76 -70l-76 50q94 129 264 129q128 0 198.5 -75.5t70.5 -205.5v-430h-80l-7 131q-48 -76 -108.5 -110.5t-147.5 -34.5q-92 0 -155.5 56.5t-63.5 147.5zM203 913q0 -52 44.5 -86t98.5 -34 q96 0 163 76.5t64 170.5h-213q-67 0 -112 -34t-45 -93z" />
<glyph unicode="&#xab;" horiz-adv-x="1026" d="M150 512l360 322v-154l-197 -168l197 -170v-154zM512 512l360 322v-154l-196 -168l196 -170v-154z" />
<glyph unicode="&#xac;" horiz-adv-x="1189" d="M152 676v121h866v-506h-125v385h-741z" />
<glyph unicode="&#xad;" horiz-adv-x="849" d="M102 590v102h646v-102h-646z" />
<glyph unicode="&#xae;" horiz-adv-x="1718" d="M113 709q0 205 100 379.5t271.5 276t373.5 101.5q204 0 376 -101.5t272 -275.5t100 -380q0 -123 -37.5 -239t-107 -209t-161 -163t-206 -108.5t-236.5 -38.5q-121 0 -234.5 38.5t-205 108.5t-161 163t-107 209t-37.5 239zM213 709q0 -132 51.5 -253.5t138.5 -210 t206 -141.5t249 -53t250 53t207.5 141.5t139.5 210t52 253.5t-52 253.5t-139.5 210t-207.5 141t-250 52.5t-249 -52.5t-206 -141t-138.5 -210t-51.5 -253.5zM614 305v791h299q131 0 194.5 -59t63.5 -169q0 -96 -48.5 -150t-121.5 -67l201 -346h-127l-180 336h-168v-336h-113 zM715 741h198q156 0 156 127t-156 127h-198v-254z" />
<glyph unicode="&#xb0;" horiz-adv-x="831" d="M133 1141q0 121 83 207t200 86t199.5 -85.5t82.5 -207.5t-82.5 -207.5t-199.5 -85.5t-200 86t-83 207zM215 1141q0 -88 59 -149.5t142 -61.5t141.5 61.5t58.5 149.5t-58.5 149.5t-141.5 61.5t-142 -61.5t-59 -149.5z" />
<glyph unicode="&#xb1;" horiz-adv-x="1241" d="M113 0h1015v-102h-1015v102zM113 573v103h456v467h103v-467h456v-103h-456v-467h-103v467h-456z" />
<glyph unicode="&#xb5;" horiz-adv-x="1153" d="M164 -266v1265h145v-598q0 -45 5.5 -85t20 -79.5t37.5 -67.5t61 -45.5t87 -17.5q123 0 213 96.5t90 223.5v573h146v-999h-146v180q-33 -77 -121 -140t-198 -63q-113 0 -193 54l-22 -297h-125z" />
<glyph unicode="&#xb6;" horiz-adv-x="1239" d="M80 1018q0 120 65 212t166.5 137.5t220.5 45.5h170v-1413h-170v623q-119 0 -220.5 45.5t-166.5 137.5t-65 212zM883 0v1413h172v-1413h-172z" />
<glyph unicode="&#xb7;" horiz-adv-x="542" d="M150 827q0 52 34.5 86.5t85.5 34.5t87 -35t36 -86t-36 -85.5t-87 -34.5t-85.5 34.5t-34.5 85.5z" />
<glyph unicode="&#xba;" horiz-adv-x="858" d="M98 1071q0 153 93 258t237 105q145 0 238.5 -105t93.5 -258q0 -152 -93.5 -256t-238.5 -104q-144 0 -237 104t-93 256zM213 1071q0 -55 12 -102t36.5 -85.5t67.5 -60.5t99 -22q75 0 125.5 39t71 97.5t20.5 133.5q0 118 -53 195t-164 77q-75 0 -124.5 -39t-70 -98 t-20.5 -135z" />
<glyph unicode="&#xbb;" horiz-adv-x="1026" d="M150 188v154l196 170l-196 168v154l360 -322zM512 188v154l197 170l-197 168v154l360 -322z" />
<glyph unicode="&#xbf;" horiz-adv-x="1032" d="M113 358q0 68 19 120t48.5 83.5t66 56t73 43.5t66 39.5t48.5 51.5t19 71v242h125v-242q0 -58 -18.5 -100t-48 -67.5t-65 -45.5t-71 -40.5t-65 -45.5t-48 -68.5t-18.5 -101.5q0 -116 76 -174.5t196 -58.5q115 0 192 66.5t78 183.5h134q-1 -113 -54.5 -197.5t-143 -128.5 t-200.5 -45q-114 0 -205.5 40t-147.5 122.5t-56 195.5zM420 1251v183h184v-183h-184z" />
<glyph unicode="&#xc0;" horiz-adv-x="1290" d="M66 0l524 1413h112l523 -1413h-156l-111 307h-624l-111 -307h-157zM338 1827h186l213 -283h-166zM379 442h534l-266 758z" />
<glyph unicode="&#xc1;" horiz-adv-x="1290" d="M66 0l524 1413h112l523 -1413h-156l-111 307h-624l-111 -307h-157zM379 442h534l-266 758zM535 1538l213 289h186l-262 -289h-137z" />
<glyph unicode="&#xc2;" horiz-adv-x="1290" d="M66 0l524 1413h112l523 -1413h-156l-111 307h-624l-111 -307h-157zM311 1511l334 359l336 -359h-147l-189 205l-186 -205h-148zM379 442h534l-266 758z" />
<glyph unicode="&#xc3;" horiz-adv-x="1290" d="M66 0l524 1413h112l523 -1413h-156l-111 307h-624l-111 -307h-157zM279 1610q0 102 46 166.5t134 64.5q56 0 102.5 -17.5t77 -42t57 -49t56 -42t61.5 -17.5q57 0 78.5 41t21.5 121h97q0 -125 -54 -192.5t-155 -67.5q-44 0 -85 17.5t-71.5 43t-59.5 51t-61.5 43 t-64.5 17.5q-96 0 -92 -137h-88zM379 442h534l-266 758z" />
<glyph unicode="&#xc4;" horiz-adv-x="1290" d="M66 0l524 1413h112l523 -1413h-156l-111 307h-624l-111 -307h-157zM379 442h534l-266 758zM406 1602v163h149v-163h-149zM733 1602v163h150v-163h-150z" />
<glyph unicode="&#xc5;" horiz-adv-x="1290" d="M66 0l499 1350q-50 22 -80 69t-30 105q0 78 55 133t133 55q77 0 134 -54.5t57 -133.5q0 -56 -30 -102t-79 -70l500 -1352h-156l-111 307h-624l-111 -307h-157zM379 442h534l-266 758zM545 1524q0 -44 28 -72.5t70 -28.5q40 0 70 29.5t30 71.5q0 41 -28.5 69.5t-71.5 28.5 q-44 0 -71 -27t-27 -71z" />
<glyph unicode="&#xc6;" horiz-adv-x="1806" d="M39 0l526 1413h1118v-131h-747v-510h659v-131h-659v-504h747v-137h-899v307h-467l-112 -307h-166zM367 449h417v833h-114z" />
<glyph unicode="&#xc7;" horiz-adv-x="1443" d="M139 707q0 121 24 228.5t74 199.5t123 158.5t177 104.5t229 38q196 0 342 -95t225 -278l-133 -55q-29 103 -96 170.5t-151.5 96t-188.5 28.5q-99 0 -180 -31.5t-136.5 -85.5t-93 -129t-54.5 -160t-17 -180q0 -99 17 -187t55 -165t93.5 -132.5t137 -87.5t182.5 -32 q320 0 432 297l135 -56q-77 -183 -223.5 -278.5t-343.5 -95.5l-72 -111q90 -15 141.5 -61.5t51.5 -108.5q0 -83 -58 -141t-133 -58q-59 0 -105.5 34.5t-66.5 86.5l80 45q6 -31 32 -53.5t60 -22.5q38 0 67.5 28.5t29.5 70.5q0 66 -95 96l-110 39l82 162q-132 16 -235.5 79.5 t-167.5 161t-97 219t-33 261.5z" />
<glyph unicode="&#xc8;" horiz-adv-x="1269" d="M209 0v1413h911v-125h-768v-520h660v-123h-660v-514h768v-131h-911zM328 1827h186l213 -283h-166z" />
<glyph unicode="&#xc9;" horiz-adv-x="1269" d="M209 0v1413h911v-125h-768v-520h660v-123h-660v-514h768v-131h-911zM524 1538l213 289h187l-262 -289h-138z" />
<glyph unicode="&#xca;" horiz-adv-x="1269" d="M209 0v1413h911v-125h-768v-520h660v-123h-660v-514h768v-131h-911zM303 1511l334 359l336 -359h-148l-188 205l-186 -205h-148z" />
<glyph unicode="&#xcb;" horiz-adv-x="1269" d="M209 0v1413h911v-125h-768v-520h660v-123h-660v-514h768v-131h-911zM395 1602v163h150v-163h-150zM723 1602v163h149v-163h-149z" />
<glyph unicode="&#xcc;" horiz-adv-x="534" d="M-41 1827h186l213 -283h-165zM195 0v1413h145v-1413h-145z" />
<glyph unicode="&#xcd;" horiz-adv-x="534" d="M156 1538l213 289h186l-262 -289h-137zM195 0v1413h145v-1413h-145z" />
<glyph unicode="&#xce;" horiz-adv-x="534" d="M-66 1511l334 359l336 -359h-147l-189 205l-186 -205h-148zM195 0v1413h145v-1413h-145z" />
<glyph unicode="&#xcf;" horiz-adv-x="534" d="M27 1602v163h149v-163h-149zM195 0v1413h145v-1413h-145zM354 1602v163h150v-163h-150z" />
<glyph unicode="&#xd0;" horiz-adv-x="1394" d="M82 662v102h113v649h358q343 0 523.5 -183.5t180.5 -533.5q-1 -337 -183.5 -516.5t-522.5 -179.5h-356v662h-113zM346 137h180q126 0 230 34t182.5 101.5t122 178.5t43.5 256q0 282 -138.5 426.5t-416.5 144.5h-203v-514h422v-102h-422v-525z" />
<glyph unicode="&#xd1;" horiz-adv-x="1390" d="M205 0v1413h219l614 -1261v1261h148v-1413h-221l-611 1262v-1262h-149zM330 1610q0 102 46 166.5t134 64.5q56 0 102.5 -17.5t77 -42t57 -49t56 -42t61.5 -17.5q58 0 79.5 41.5t21.5 120.5h96q0 -125 -54 -192.5t-155 -67.5q-44 0 -85 17.5t-71.5 43t-59.5 51t-61.5 43 t-64.5 17.5q-96 0 -92 -137h-88z" />
<glyph unicode="&#xd2;" d="M137 707q0 120 23.5 227.5t74 199t123.5 158t177 104.5t229 38q157 0 279 -57.5t197.5 -158.5t114 -230.5t38.5 -280.5t-38.5 -280.5t-114 -230.5t-197.5 -158.5t-279 -57.5q-125 0 -229 38t-177 104.5t-123.5 158t-74 199t-23.5 227.5zM276 707q0 -95 17.5 -180.5 t55.5 -161.5t94 -131t138.5 -87t182.5 -32q125 0 220.5 48.5t152.5 132.5t85.5 187.5t28.5 223.5t-28.5 223.5t-85.5 187t-152.5 132t-220.5 48.5q-100 0 -182.5 -32t-138.5 -87t-94 -130.5t-55.5 -161t-17.5 -180.5zM457 1827h186l213 -283h-166z" />
<glyph unicode="&#xd3;" d="M137 707q0 120 23.5 227.5t74 199t123.5 158t177 104.5t229 38q157 0 279 -57.5t197.5 -158.5t114 -230.5t38.5 -280.5t-38.5 -280.5t-114 -230.5t-197.5 -158.5t-279 -57.5q-125 0 -229 38t-177 104.5t-123.5 158t-74 199t-23.5 227.5zM276 707q0 -95 17.5 -180.5 t55.5 -161.5t94 -131t138.5 -87t182.5 -32q125 0 220.5 48.5t152.5 132.5t85.5 187.5t28.5 223.5t-28.5 223.5t-85.5 187t-152.5 132t-220.5 48.5q-100 0 -182.5 -32t-138.5 -87t-94 -130.5t-55.5 -161t-17.5 -180.5zM653 1538l213 289h187l-262 -289h-138z" />
<glyph unicode="&#xd4;" d="M137 707q0 120 23.5 227.5t74 199t123.5 158t177 104.5t229 38q157 0 279 -57.5t197.5 -158.5t114 -230.5t38.5 -280.5t-38.5 -280.5t-114 -230.5t-197.5 -158.5t-279 -57.5q-125 0 -229 38t-177 104.5t-123.5 158t-74 199t-23.5 227.5zM276 707q0 -95 17.5 -180.5 t55.5 -161.5t94 -131t138.5 -87t182.5 -32q125 0 220.5 48.5t152.5 132.5t85.5 187.5t28.5 223.5t-28.5 223.5t-85.5 187t-152.5 132t-220.5 48.5q-100 0 -182.5 -32t-138.5 -87t-94 -130.5t-55.5 -161t-17.5 -180.5zM432 1511l334 359l336 -359h-148l-188 205l-186 -205 h-148z" />
<glyph unicode="&#xd5;" d="M137 707q0 120 23.5 227.5t74 199t123.5 158t177 104.5t229 38q157 0 279 -57.5t197.5 -158.5t114 -230.5t38.5 -280.5t-38.5 -280.5t-114 -230.5t-197.5 -158.5t-279 -57.5q-125 0 -229 38t-177 104.5t-123.5 158t-74 199t-23.5 227.5zM276 707q0 -95 17.5 -180.5 t55.5 -161.5t94 -131t138.5 -87t182.5 -32q125 0 220.5 48.5t152.5 132.5t85.5 187.5t28.5 223.5t-28.5 223.5t-85.5 187t-152.5 132t-220.5 48.5q-100 0 -182.5 -32t-138.5 -87t-94 -130.5t-55.5 -161t-17.5 -180.5zM397 1610q0 102 46.5 166.5t134.5 64.5 q56 0 102.5 -17.5t77 -42t57 -49t56 -42t61.5 -17.5q57 0 78.5 41t21.5 121h96q0 -125 -53.5 -192.5t-154.5 -67.5q-44 0 -85 17.5t-71.5 43t-59.5 51t-61.5 43t-64.5 17.5q-97 0 -93 -137h-88z" />
<glyph unicode="&#xd6;" d="M137 707q0 120 23.5 227.5t74 199t123.5 158t177 104.5t229 38q157 0 279 -57.5t197.5 -158.5t114 -230.5t38.5 -280.5t-38.5 -280.5t-114 -230.5t-197.5 -158.5t-279 -57.5q-125 0 -229 38t-177 104.5t-123.5 158t-74 199t-23.5 227.5zM276 707q0 -95 17.5 -180.5 t55.5 -161.5t94 -131t138.5 -87t182.5 -32q125 0 220.5 48.5t152.5 132.5t85.5 187.5t28.5 223.5t-28.5 223.5t-85.5 187t-152.5 132t-220.5 48.5q-100 0 -182.5 -32t-138.5 -87t-94 -130.5t-55.5 -161t-17.5 -180.5zM524 1602v163h150v-163h-150zM852 1602v163h149v-163 h-149z" />
<glyph unicode="&#xd7;" horiz-adv-x="1241" d="M219 954l72 72l330 -330l323 324l72 -72l-324 -323l330 -330l-72 -72l-329 330l-324 -324l-72 72l324 324z" />
<glyph unicode="&#xd8;" d="M137 707q0 120 23.5 227.5t74 199t123.5 158t177 104.5t229 38q186 0 321 -80l35 59h80l-55 -100q123 -96 185.5 -254t62.5 -352q0 -151 -38.5 -280.5t-114 -230.5t-197.5 -158.5t-279 -57.5q-184 0 -324 81l-34 -61h-80l57 100q-122 97 -184 255.5t-62 351.5zM276 707 q0 -148 44.5 -274.5t132.5 -207.5l565 1006q-106 67 -254 67q-100 0 -182.5 -32t-138.5 -87t-94 -130.5t-55.5 -161t-17.5 -180.5zM508 184q107 -69 256 -69q125 0 220.5 48.5t152.5 132.5t85.5 187.5t28.5 223.5q0 151 -43.5 277t-132.5 206z" />
<glyph unicode="&#xd9;" horiz-adv-x="1333" d="M178 590v823h146v-833q0 -105 17 -185.5t55 -145t106 -98.5t164 -34q77 0 136 23t97 63t62.5 99.5t34.5 127t10 150.5v833h145v-813q0 -139 -27.5 -250t-84.5 -195t-151.5 -129.5t-221.5 -45.5t-222 45.5t-152.5 128.5t-85.5 192t-28 244zM358 1827h187l213 -283h-166z " />
<glyph unicode="&#xda;" horiz-adv-x="1333" d="M178 590v823h146v-833q0 -105 17 -185.5t55 -145t106 -98.5t164 -34q77 0 136 23t97 63t62.5 99.5t34.5 127t10 150.5v833h145v-813q0 -139 -27.5 -250t-84.5 -195t-151.5 -129.5t-221.5 -45.5t-222 45.5t-152.5 128.5t-85.5 192t-28 244zM555 1538l213 289h186 l-262 -289h-137z" />
<glyph unicode="&#xdb;" horiz-adv-x="1333" d="M178 590v823h146v-833q0 -105 17 -185.5t55 -145t106 -98.5t164 -34q77 0 136 23t97 63t62.5 99.5t34.5 127t10 150.5v833h145v-813q0 -139 -27.5 -250t-84.5 -195t-151.5 -129.5t-221.5 -45.5t-222 45.5t-152.5 128.5t-85.5 192t-28 244zM334 1511l334 359l336 -359 h-148l-188 205l-187 -205h-147z" />
<glyph unicode="&#xdc;" horiz-adv-x="1333" d="M178 590v823h146v-833q0 -105 17 -185.5t55 -145t106 -98.5t164 -34q77 0 136 23t97 63t62.5 99.5t34.5 127t10 150.5v833h145v-813q0 -139 -27.5 -250t-84.5 -195t-151.5 -129.5t-221.5 -45.5t-222 45.5t-152.5 128.5t-85.5 192t-28 244zM426 1602v163h149v-163h-149z M754 1602v163h149v-163h-149z" />
<glyph unicode="&#xdd;" horiz-adv-x="1251" d="M25 1413h168l432 -711l434 711h168l-529 -860v-553h-145v553zM514 1538l213 289h186l-262 -289h-137z" />
<glyph unicode="&#xde;" horiz-adv-x="1116" d="M205 0v1413h149v-203h242q205 0 326.5 -103.5t121.5 -285.5t-121 -282.5t-327 -100.5h-242v-438h-149zM354 573h242q144 0 221.5 62.5t77.5 181.5t-78.5 184.5t-220.5 65.5h-242v-494z" />
<glyph unicode="&#xdf;" horiz-adv-x="1054" d="M150 0v1063q0 172 114.5 271.5t288.5 99.5q71 0 140.5 -23.5t125.5 -65.5t90.5 -106t34.5 -139q0 -47 -17 -84t-42.5 -58.5t-55 -43.5t-55 -39.5t-42.5 -45t-17 -61.5q0 -42 32.5 -81t78.5 -73.5t92.5 -74t79 -100.5t32.5 -136q0 -141 -96.5 -231t-239.5 -90 q-121 0 -280 71l59 133q110 -65 221 -65q70 0 119 48.5t49 119.5q0 51 -21.5 97.5t-54 79.5t-70 69.5t-70 68.5t-54 76.5t-21.5 93.5q0 46 22 82t53.5 60t62.5 48.5t53 60.5t22 83q0 90 -58.5 144.5t-170.5 54.5q-114 0 -178 -69t-64 -179v-1059h-163z" />
<glyph unicode="&#xe0;" horiz-adv-x="1064" d="M111 272q0 150 95 223.5t261 73.5h317q0 161 -60.5 243.5t-203.5 82.5q-87 0 -157.5 -41t-114.5 -104l-101 77q70 96 162 142.5t219 46.5q179 0 278 -107.5t99 -292.5v-616h-114l-7 182q-69 -105 -154.5 -153.5t-209.5 -48.5q-131 0 -220 80.5t-89 211.5zM225 1413h187 l213 -283h-166zM252 272q0 -47 17 -80.5t47 -52t65.5 -27t77.5 -8.5q92 0 167.5 51.5t116.5 131t41 166.5h-303q-99 0 -164 -47t-65 -134z" />
<glyph unicode="&#xe1;" horiz-adv-x="1064" d="M111 272q0 150 95 223.5t261 73.5h317q0 161 -60.5 243.5t-203.5 82.5q-87 0 -157.5 -41t-114.5 -104l-101 77q70 96 162 142.5t219 46.5q179 0 278 -107.5t99 -292.5v-616h-114l-7 182q-69 -105 -154.5 -153.5t-209.5 -48.5q-131 0 -220 80.5t-89 211.5zM252 272 q0 -47 17 -80.5t47 -52t65.5 -27t77.5 -8.5q92 0 167.5 51.5t116.5 131t41 166.5h-303q-99 0 -164 -47t-65 -134zM422 1124l213 289h186l-262 -289h-137z" />
<glyph unicode="&#xe2;" horiz-adv-x="1064" d="M111 272q0 150 95 223.5t261 73.5h317q0 161 -60.5 243.5t-203.5 82.5q-87 0 -157.5 -41t-114.5 -104l-101 77q70 96 162 142.5t219 46.5q179 0 278 -107.5t99 -292.5v-616h-114l-7 182q-69 -105 -154.5 -153.5t-209.5 -48.5q-131 0 -220 80.5t-89 211.5zM201 1098 l334 358l335 -358h-147l-188 205l-187 -205h-147zM252 272q0 -47 17 -80.5t47 -52t65.5 -27t77.5 -8.5q92 0 167.5 51.5t116.5 131t41 166.5h-303q-99 0 -164 -47t-65 -134z" />
<glyph unicode="&#xe3;" horiz-adv-x="1064" d="M111 272q0 150 95 223.5t261 73.5h317q0 161 -60.5 243.5t-203.5 82.5q-87 0 -157.5 -41t-114.5 -104l-101 77q70 96 162 142.5t219 46.5q179 0 278 -107.5t99 -292.5v-616h-114l-7 182q-69 -105 -154.5 -153.5t-209.5 -48.5q-131 0 -220 80.5t-89 211.5zM168 1194 q0 102 46 166.5t134 64.5q56 0 102.5 -17.5t77 -42t57 -49t56 -42t61.5 -17.5q58 0 79.5 41.5t21.5 120.5h96q0 -125 -54 -192.5t-155 -67.5q-44 0 -85 17.5t-71.5 43t-59.5 51t-61.5 43t-64.5 17.5q-96 0 -92 -137h-88zM252 272q0 -47 17 -80.5t47 -52t65.5 -27t77.5 -8.5 q92 0 167.5 51.5t116.5 131t41 166.5h-303q-99 0 -164 -47t-65 -134z" />
<glyph unicode="&#xe4;" horiz-adv-x="1064" d="M111 272q0 150 95 223.5t261 73.5h317q0 161 -60.5 243.5t-203.5 82.5q-87 0 -157.5 -41t-114.5 -104l-101 77q70 96 162 142.5t219 46.5q179 0 278 -107.5t99 -292.5v-616h-114l-7 182q-69 -105 -154.5 -153.5t-209.5 -48.5q-131 0 -220 80.5t-89 211.5zM252 272 q0 -47 17 -80.5t47 -52t65.5 -27t77.5 -8.5q92 0 167.5 51.5t116.5 131t41 166.5h-303q-99 0 -164 -47t-65 -134zM295 1188v164h149v-164h-149zM623 1188v164h149v-164h-149z" />
<glyph unicode="&#xe5;" horiz-adv-x="1064" d="M111 272q0 150 95 223.5t261 73.5h317q0 161 -60.5 243.5t-203.5 82.5q-87 0 -157.5 -41t-114.5 -104l-101 77q70 96 162 142.5t219 46.5q179 0 278 -107.5t99 -292.5v-616h-114l-7 182q-69 -105 -154.5 -153.5t-209.5 -48.5q-131 0 -220 80.5t-89 211.5zM252 272 q0 -47 17 -80.5t47 -52t65.5 -27t77.5 -8.5q92 0 167.5 51.5t116.5 131t41 166.5h-303q-99 0 -164 -47t-65 -134zM344 1274q0 78 55 133t133 55q77 0 134 -54.5t57 -133.5q0 -78 -56.5 -134.5t-134.5 -56.5q-79 0 -133.5 55.5t-54.5 135.5zM434 1272q0 -44 28 -71t70 -27 q40 0 70.5 28.5t30.5 69.5q0 42 -29.5 71t-71.5 29q-44 0 -71 -27t-27 -73z" />
<glyph unicode="&#xe6;" horiz-adv-x="1699" d="M102 274q0 151 95.5 223t263.5 72h319q0 338 -266 338q-85 0 -155.5 -42.5t-112.5 -106.5l-107 67q72 97 164 144t219 47q247 0 328 -195q95 191 326 191q96 0 169.5 -28.5t120.5 -77t77 -118t42 -144t12 -163.5v-28h-698q-2 -146 77 -247.5t222 -101.5q92 0 160.5 24.5 t128.5 86.5l90 -74q-78 -83 -167.5 -118t-209.5 -35q-158 0 -254 79t-137 216q-102 -303 -393 -303q-132 0 -223 81.5t-91 212.5zM250 272q0 -72 66.5 -123t138.5 -51q91 0 168 52.5t118.5 134t38.5 168.5h-305q-97 0 -161 -47.5t-64 -133.5zM899 569h571q2 144 -71.5 232 t-216.5 88q-134 0 -207 -91t-76 -229z" />
<glyph unicode="&#xe7;" horiz-adv-x="1040" d="M129 498q0 104 27 196t78 164.5t134 115t187 42.5q132 0 231 -67.5t152 -190.5l-129 -56q-25 91 -93.5 145t-160.5 54q-76 0 -134 -36.5t-90 -97t-47.5 -128.5t-15.5 -141q0 -58 9 -113.5t30.5 -109t53.5 -93t82 -64t112 -24.5q92 0 160.5 54.5t93.5 144.5l117 -51 q-43 -124 -137.5 -192t-223.5 -70l-71 -111q89 -15 140.5 -61.5t51.5 -108.5q0 -83 -57.5 -141t-132.5 -58q-59 0 -105.5 34.5t-66.5 86.5l79 45q6 -31 32.5 -53.5t60.5 -22.5q38 0 67 28.5t29 70.5q0 67 -94 96l-111 39l84 164q-111 21 -189.5 96.5t-115.5 181.5t-37 232z " />
<glyph unicode="&#xe8;" horiz-adv-x="1048" d="M113 494q0 104 27 196t78 164.5t134.5 115t188.5 42.5q94 0 166.5 -28.5t119 -77t76 -117.5t41.5 -144.5t12 -163.5l-2 -28h-698q-2 -146 77 -247.5t222 -101.5q93 0 161.5 24.5t127.5 86.5l90 -74q-78 -83 -167 -118t-208 -35q-109 0 -195.5 40.5t-140.5 110.5 t-82 160.5t-28 194.5zM221 1413h187l213 -283h-166zM256 569h573q0 144 -73.5 232t-214.5 88q-91 0 -156.5 -45t-96 -115.5t-32.5 -159.5z" />
<glyph unicode="&#xe9;" horiz-adv-x="1048" d="M113 494q0 104 27 196t78 164.5t134.5 115t188.5 42.5q94 0 166.5 -28.5t119 -77t76 -117.5t41.5 -144.5t12 -163.5l-2 -28h-698q-2 -146 77 -247.5t222 -101.5q93 0 161.5 24.5t127.5 86.5l90 -74q-78 -83 -167 -118t-208 -35q-109 0 -195.5 40.5t-140.5 110.5 t-82 160.5t-28 194.5zM256 569h573q0 144 -73.5 232t-214.5 88q-91 0 -156.5 -45t-96 -115.5t-32.5 -159.5zM418 1124l213 289h186l-262 -289h-137z" />
<glyph unicode="&#xea;" horiz-adv-x="1048" d="M113 494q0 104 27 196t78 164.5t134.5 115t188.5 42.5q94 0 166.5 -28.5t119 -77t76 -117.5t41.5 -144.5t12 -163.5l-2 -28h-698q-2 -146 77 -247.5t222 -101.5q93 0 161.5 24.5t127.5 86.5l90 -74q-78 -83 -167 -118t-208 -35q-109 0 -195.5 40.5t-140.5 110.5 t-82 160.5t-28 194.5zM197 1098l333 358l336 -358h-147l-189 205l-186 -205h-147zM256 569h573q0 144 -73.5 232t-214.5 88q-91 0 -156.5 -45t-96 -115.5t-32.5 -159.5z" />
<glyph unicode="&#xeb;" horiz-adv-x="1048" d="M113 494q0 104 27 196t78 164.5t134.5 115t188.5 42.5q94 0 166.5 -28.5t119 -77t76 -117.5t41.5 -144.5t12 -163.5l-2 -28h-698q-2 -146 77 -247.5t222 -101.5q93 0 161.5 24.5t127.5 86.5l90 -74q-78 -83 -167 -118t-208 -35q-109 0 -195.5 40.5t-140.5 110.5 t-82 160.5t-28 194.5zM256 569h573q0 144 -73.5 232t-214.5 88q-91 0 -156.5 -45t-96 -115.5t-32.5 -159.5zM289 1188v164h149v-164h-149zM616 1188v164h150v-164h-150z" />
<glyph unicode="&#xec;" horiz-adv-x="522" d="M-45 1413h186l213 -283h-166zM184 0v999h156v-999h-156z" />
<glyph unicode="&#xed;" horiz-adv-x="522" d="M152 1124l213 289h186l-262 -289h-137zM184 0v999h156v-999h-156z" />
<glyph unicode="&#xee;" horiz-adv-x="522" d="M-72 1098l334 358l336 -358h-147l-189 205l-186 -205h-148zM184 0v999h156v-999h-156z" />
<glyph unicode="&#xef;" horiz-adv-x="522" d="M23 1188v164h149v-164h-149zM184 0v999h156v-999h-156zM350 1188v164h150v-164h-150z" />
<glyph unicode="&#xf0;" horiz-adv-x="1183" d="M121 516q0 107 32 203t91 169.5t149.5 117t200.5 43.5q82 0 151.5 -33t100.5 -84q-35 198 -240 336l-98 -146l-102 74l92 137q-73 37 -176 76l71 107q120 -52 174 -80l72 104l100 -72l-63 -96q66 -45 120.5 -96.5t106 -126.5t87 -163.5t56.5 -209t21 -260.5 q0 -144 -54.5 -263.5t-164 -194t-254.5 -74.5t-254.5 74.5t-164 194t-54.5 263.5zM276 516q0 -77 19.5 -147t57 -127t100 -91t141.5 -34t141.5 34t100 91.5t56.5 127t19 146.5q0 107 -34 195.5t-107.5 146t-175.5 57.5q-79 0 -141.5 -34t-100 -91t-57 -127t-19.5 -147z" />
<glyph unicode="&#xf1;" horiz-adv-x="1142" d="M201 0v999h135v-165q47 81 132.5 131.5t182.5 50.5q91 0 158.5 -32.5t106.5 -90t58 -128t19 -155.5v-610h-135v594q0 57 -10 105.5t-33.5 92t-67.5 68.5t-106 25q-125 0 -215 -94t-90 -222v-569h-135zM205 1194q0 102 46 166.5t134 64.5q56 0 102.5 -17.5t77 -42t57 -49 t56 -42t61.5 -17.5q58 0 79.5 41.5t21.5 120.5h96q0 -125 -54 -192.5t-155 -67.5q-44 0 -85 17.5t-71.5 43t-59.5 51t-61.5 43t-64.5 17.5q-96 0 -92 -137h-88z" />
<glyph unicode="&#xf2;" horiz-adv-x="1167" d="M117 496q0 142 58.5 259.5t166 187t242.5 69.5t242.5 -69.5t166 -187t58.5 -259.5t-58.5 -259.5t-166 -187t-242.5 -69.5t-242.5 69.5t-166 187t-58.5 259.5zM270 496q0 -81 17.5 -150t53.5 -125t98.5 -88.5t144.5 -32.5t144 32.5t98 88.5t53.5 125t17.5 150t-17.5 149.5 t-53.5 125t-98 88.5t-144 32t-144 -32t-98.5 -88.5t-54 -125t-17.5 -149.5zM276 1413h187l213 -283h-166z" />
<glyph unicode="&#xf3;" horiz-adv-x="1167" d="M117 496q0 142 58.5 259.5t166 187t242.5 69.5t242.5 -69.5t166 -187t58.5 -259.5t-58.5 -259.5t-166 -187t-242.5 -69.5t-242.5 69.5t-166 187t-58.5 259.5zM270 496q0 -81 17.5 -150t53.5 -125t98.5 -88.5t144.5 -32.5t144 32.5t98 88.5t53.5 125t17.5 150t-17.5 149.5 t-53.5 125t-98 88.5t-144 32t-144 -32t-98.5 -88.5t-54 -125t-17.5 -149.5zM473 1124l213 289h186l-262 -289h-137z" />
<glyph unicode="&#xf4;" horiz-adv-x="1167" d="M117 496q0 142 58.5 259.5t166 187t242.5 69.5t242.5 -69.5t166 -187t58.5 -259.5t-58.5 -259.5t-166 -187t-242.5 -69.5t-242.5 69.5t-166 187t-58.5 259.5zM250 1098l334 358l336 -358h-148l-188 205l-187 -205h-147zM270 496q0 -81 17.5 -150t53.5 -125t98.5 -88.5 t144.5 -32.5t144 32.5t98 88.5t53.5 125t17.5 150t-17.5 149.5t-53.5 125t-98 88.5t-144 32t-144 -32t-98.5 -88.5t-54 -125t-17.5 -149.5z" />
<glyph unicode="&#xf5;" horiz-adv-x="1167" d="M117 496q0 142 58.5 259.5t166 187t242.5 69.5t242.5 -69.5t166 -187t58.5 -259.5t-58.5 -259.5t-166 -187t-242.5 -69.5t-242.5 69.5t-166 187t-58.5 259.5zM217 1194q0 102 46 166.5t134 64.5q56 0 102.5 -17.5t77 -42t57.5 -49t56.5 -42t61.5 -17.5q57 0 78.5 41 t21.5 121h96q0 -125 -54 -192.5t-155 -67.5q-44 0 -85 17.5t-71.5 43t-59.5 51t-61.5 43t-64.5 17.5q-96 0 -92 -137h-88zM270 496q0 -81 17.5 -150t53.5 -125t98.5 -88.5t144.5 -32.5t144 32.5t98 88.5t53.5 125t17.5 150t-17.5 149.5t-53.5 125t-98 88.5t-144 32t-144 -32 t-98.5 -88.5t-54 -125t-17.5 -149.5z" />
<glyph unicode="&#xf6;" horiz-adv-x="1167" d="M117 496q0 142 58.5 259.5t166 187t242.5 69.5t242.5 -69.5t166 -187t58.5 -259.5t-58.5 -259.5t-166 -187t-242.5 -69.5t-242.5 69.5t-166 187t-58.5 259.5zM270 496q0 -81 17.5 -150t53.5 -125t98.5 -88.5t144.5 -32.5t144 32.5t98 88.5t53.5 125t17.5 150t-17.5 149.5 t-53.5 125t-98 88.5t-144 32t-144 -32t-98.5 -88.5t-54 -125t-17.5 -149.5zM344 1188v164h150v-164h-150zM672 1188v164h149v-164h-149z" />
<glyph unicode="&#xf7;" horiz-adv-x="940" d="M154 387v102h632v-102h-632zM379 -47v182h184v-182h-184zM379 725v182h184v-182h-184z" />
<glyph unicode="&#xf8;" horiz-adv-x="1167" d="M117 496q0 142 58.5 259.5t166 187t242.5 69.5q123 0 225 -60l25 43h55l-39 -69q94 -69 147.5 -182.5t53.5 -247.5q0 -142 -58.5 -259.5t-166 -187t-242.5 -69.5q-126 0 -232 61l-20 -37h-56l37 66q-93 69 -144.5 181t-51.5 245zM270 496q0 -208 105 -316l375 666 q-70 45 -166 45q-82 0 -144 -32t-98.5 -88.5t-54 -125t-17.5 -149.5zM414 150q73 -50 170 -50q82 0 144 32.5t98 88.5t53.5 125t17.5 150q0 213 -109 319z" />
<glyph unicode="&#xf9;" horiz-adv-x="1171" d="M178 403v596h135v-600q0 -46 5.5 -86.5t20.5 -82t38 -71.5t62 -48.5t89 -18.5q124 0 216 101.5t92 230.5v575h135v-999h-135v174q-33 -72 -120 -134.5t-198 -62.5q-90 0 -157.5 34t-106 94.5t-57.5 135t-19 162.5zM279 1413h186l213 -283h-166z" />
<glyph unicode="&#xfa;" horiz-adv-x="1171" d="M178 403v596h135v-600q0 -46 5.5 -86.5t20.5 -82t38 -71.5t62 -48.5t89 -18.5q124 0 216 101.5t92 230.5v575h135v-999h-135v174q-33 -72 -120 -134.5t-198 -62.5q-90 0 -157.5 34t-106 94.5t-57.5 135t-19 162.5zM475 1124l213 289h186l-262 -289h-137z" />
<glyph unicode="&#xfb;" horiz-adv-x="1171" d="M178 403v596h135v-600q0 -46 5.5 -86.5t20.5 -82t38 -71.5t62 -48.5t89 -18.5q124 0 216 101.5t92 230.5v575h135v-999h-135v174q-33 -72 -120 -134.5t-198 -62.5q-90 0 -157.5 34t-106 94.5t-57.5 135t-19 162.5zM254 1098l334 358l336 -358h-148l-188 205l-187 -205 h-147z" />
<glyph unicode="&#xfc;" horiz-adv-x="1171" d="M178 403v596h135v-600q0 -46 5.5 -86.5t20.5 -82t38 -71.5t62 -48.5t89 -18.5q124 0 216 101.5t92 230.5v575h135v-999h-135v174q-33 -72 -120 -134.5t-198 -62.5q-90 0 -157.5 34t-106 94.5t-57.5 135t-19 162.5zM348 1188v164h150v-164h-150zM676 1188v164h149v-164 h-149z" />
<glyph unicode="&#xfd;" horiz-adv-x="974" d="M51 999h152l295 -833l288 833h152l-530 -1429h-140l164 434zM377 1124l213 289h186l-262 -289h-137z" />
<glyph unicode="&#xfe;" horiz-adv-x="1191" d="M205 -438v1851h149v-563q108 170 320 170q122 0 213 -70t136.5 -187t45.5 -263t-45.5 -263t-136.5 -187t-213 -70q-212 0 -320 170v-588h-149zM338 498q0 -108 29.5 -193.5t97.5 -140.5t166 -55t166 55t97.5 140.5t29.5 193.5q0 169 -74 280t-219 111t-219 -111t-74 -280 z" />
<glyph unicode="&#xff;" horiz-adv-x="974" d="M51 999h152l295 -833l288 833h152l-530 -1429h-140l164 434zM250 1188v164h149v-164h-149zM578 1188v164h149v-164h-149z" />
<glyph unicode="&#x152;" horiz-adv-x="2254" d="M127 707q0 120 23.5 227.5t74 199t123.5 158t177 104.5t229 38q354 0 483 -291v270h891v-125h-748v-520h660v-123h-660v-514h748v-131h-891v270q-125 -290 -483 -290q-125 0 -229 38t-177 104.5t-123.5 158t-74 199t-23.5 227.5zM270 707q0 -95 17 -181t54.5 -162.5 t93 -132t137.5 -88t182 -32.5q124 0 219.5 49t151.5 134t84 189t28 224t-28 224t-84 189t-151.5 134t-219.5 49q-100 0 -182 -32.5t-137.5 -88t-93 -132t-54.5 -162.5t-17 -181z" />
<glyph unicode="&#x153;" horiz-adv-x="1824" d="M109 496q0 143 58.5 260.5t165.5 186.5t242 69q125 0 220.5 -58t154.5 -161q47 102 134.5 160.5t215.5 58.5q93 0 165.5 -28.5t118.5 -77t76 -117.5t42 -144.5t12 -163.5l-2 -28h-696q-2 -95 29 -173t100 -128t166 -50q95 0 161.5 22t124.5 83l89 -70 q-77 -82 -165 -115.5t-208 -33.5q-254 0 -363 213q-56 -103 -152 -162t-223 -59q-135 0 -242 69t-165.5 186.5t-58.5 260.5zM262 496q0 -78 17.5 -146t54 -124t99 -88t145.5 -32q82 0 144 32t97.5 87.5t52.5 123.5t17 147q0 63 -10.5 118.5t-34.5 106t-60 86.5t-89.5 57 t-119.5 21q-67 0 -120.5 -21t-89 -57t-59 -86.5t-34 -106t-10.5 -118.5zM1014 569h577q0 144 -74.5 233t-216.5 89q-137 0 -210 -91t-76 -231z" />
<glyph unicode="&#x178;" horiz-adv-x="1251" d="M25 1413h168l432 -711l434 711h168l-529 -860v-553h-145v553zM385 1602v163h150v-163h-150zM713 1602v163h149v-163h-149z" />
<glyph unicode="&#x2000;" horiz-adv-x="935" />
<glyph unicode="&#x2001;" horiz-adv-x="1870" />
<glyph unicode="&#x2002;" horiz-adv-x="935" />
<glyph unicode="&#x2003;" horiz-adv-x="1870" />
<glyph unicode="&#x2004;" horiz-adv-x="623" />
<glyph unicode="&#x2005;" horiz-adv-x="467" />
<glyph unicode="&#x2006;" horiz-adv-x="311" />
<glyph unicode="&#x2007;" horiz-adv-x="311" />
<glyph unicode="&#x2008;" horiz-adv-x="233" />
<glyph unicode="&#x2009;" horiz-adv-x="374" />
<glyph unicode="&#x200a;" horiz-adv-x="103" />
<glyph unicode="&#x2010;" horiz-adv-x="890" d="M195 637v102h501v-102h-501z" />
<glyph unicode="&#x2011;" horiz-adv-x="890" d="M195 637v102h501v-102h-501z" />
<glyph unicode="&#x2012;" horiz-adv-x="890" d="M195 637v102h501v-102h-501z" />
<glyph unicode="&#x2013;" horiz-adv-x="849" d="M82 590v102h686v-102h-686z" />
<glyph unicode="&#x2014;" horiz-adv-x="1341" d="M0 590v102h1341v-102h-1341z" />
<glyph unicode="&#x2018;" horiz-adv-x="405" d="M6 1413h180l119 -475h-84z" />
<glyph unicode="&#x2019;" horiz-adv-x="409" d="M104 938l119 475h180l-215 -475h-84z" />
<glyph unicode="&#x201a;" horiz-adv-x="409" d="M100 -225l121 489h189l-220 -489h-90z" />
<glyph unicode="&#x201c;" horiz-adv-x="763" d="M90 1413h180l119 -475h-82zM383 1413h182l117 -475h-82z" />
<glyph unicode="&#x201d;" horiz-adv-x="704" d="M104 938l119 475h180l-215 -475h-84zM399 938l117 475h182l-217 -475h-82z" />
<glyph unicode="&#x201e;" horiz-adv-x="716" d="M100 -225l121 489h189l-220 -489h-90zM408 -225l120 489h189l-219 -489h-90z" />
<glyph unicode="&#x2022;" horiz-adv-x="782" d="M154 481q0 98 69.5 168t167.5 70t168 -70t70 -168t-70 -167.5t-168 -69.5t-167.5 69.5t-69.5 167.5z" />
<glyph unicode="&#x2026;" horiz-adv-x="1241" d="M111 0v182h192v-182h-192zM524 0v182h193v-182h-193zM938 0v182h192v-182h-192z" />
<glyph unicode="&#x202f;" horiz-adv-x="374" />
<glyph unicode="&#x2039;" horiz-adv-x="663" d="M154 512l360 322v-154l-197 -168l197 -170v-154z" />
<glyph unicode="&#x203a;" horiz-adv-x="663" d="M150 188v154l196 170l-196 168v154l360 -322z" />
<glyph unicode="&#x205f;" horiz-adv-x="467" />
<glyph unicode="&#x20ac;" horiz-adv-x="1140" d="M61 471l56 135h61q-4 62 -4 101q0 38 4 112h-117l56 133h82q44 219 168.5 351.5t322.5 132.5q233 0 373 -193l-111 -92q-93 121 -264 121q-133 0 -220 -86.5t-124 -233.5h526l-57 -133h-491q-5 -41 -5 -104q0 -67 5 -113h548l-57 -133h-469q37 -151 124.5 -238.5 t223.5 -87.5q162 0 256 123l103 -110q-135 -176 -359 -176q-202 0 -327.5 133.5t-169.5 357.5h-134z" />
<glyph unicode="&#x2122;" horiz-adv-x="913" d="M27 1356v57h360v-57h-145v-479h-70v479h-145zM446 877v536h80l144 -358l141 358h80v-536h-70v405l-119 -324h-67l-119 326v-407h-70z" />
<glyph unicode="&#x25fc;" horiz-adv-x="1003" d="M0 0v1004h1004v-1004h-1004z" />
<glyph unicode="&#xfb03;" horiz-adv-x="1503" d="M49 887v112h141v127q0 141 91 224.5t243 83.5q60 0 135 -29t146 -84q95 113 266 113q60 0 137 -29.5t150 -85.5l-66 -98q0 4 -28.5 27.5t-78.5 48t-95 24.5q-108 0 -167 -52.5t-59 -146.5v-123h498v-999h-121v887h-377v-887h-129v887h-418v-887h-129v887h-139zM317 999 h420v127q0 44 6 88q-3 6 -28.5 29.5t-76 50.5t-97.5 27q-107 0 -165.5 -52.5t-58.5 -146.5v-123z" />
<glyph unicode="&#xfb04;" horiz-adv-x="1497" d="M41 887v112h143v127q0 139 91.5 223.5t230.5 84.5q146 0 293 -115q96 115 270 115q197 0 287 -131v-1137q11 -57 51 -57q9 0 24 3t26 6l11 3v-121q-53 -20 -102 -20q-35 0 -59.5 12.5t-38.5 32.5t-22 51t-10.5 60t-2.5 69v1038q-48 44 -84.5 61t-79.5 17 q-93 0 -152 -56.5t-59 -146.5v-119h232v-112h-232v-887h-129v887h-420v-887h-127v887h-141zM309 999h422q0 176 8 215q-32 40 -88 73.5t-131 33.5q-93 0 -152 -54t-59 -147v-121z" />
</font>
</defs>
</svg>
