<svg version="1.1" xmlns="http://www.w3.org/2000/svg" xmlns:xlink="http://www.w3.org/1999/xlink" x="0px" y="0px"
	 viewBox="0 117.073 77.936 82.073" enable-background="new 0 117.073 77.936 82.073"
	 xml:space="preserve">
<g>
	<path fill="#36BA98" d="M31.13,131.275l5.019,13.674c2.269-0.489,4.562-0.371,6.685,0.267l7.306-15.682
		c-6.798-2.756-14.345-1.013-18.648,1.021c-0.003,0.001-0.006,0.002-0.01,0.003c-0.005,0.002-0.009,0.006-0.014,0.008
		c-0.013,0.007-0.026,0.013-0.039,0.019c-0.004,0.001-0.008,0.007-0.011,0.01c-0.235,0.136-0.351,0.41-0.285,0.672
		C31.132,131.269,31.13,131.275,31.13,131.275z"/>
	<path fill="#36BA98" d="M50.818,151.722l16.252-5.924c-2.86-6.756-9.429-10.86-13.912-12.463c-0.003-0.001-0.005-0.004-0.008-0.005
		c-0.006-0.002-0.01-0.003-0.016-0.005c-0.013-0.005-0.027-0.009-0.04-0.015c-0.004-0.001-0.011,0-0.015-0.001
		c-0.263-0.068-0.538,0.042-0.677,0.273c-0.002,0.002-0.008,0.005-0.008,0.005l-6.115,13.217
		C48.142,148.009,49.718,149.677,50.818,151.722z"/>
	<path fill="#36BA98" d="M66.518,150.621c-0.001-0.003-0.002-0.007-0.003-0.01c-0.003-0.007-0.007-0.011-0.009-0.018
		c-0.006-0.012-0.011-0.024-0.017-0.035c-0.001-0.005-0.007-0.008-0.009-0.012c-0.137-0.234-0.411-0.351-0.673-0.285
		c-0.002-0.001-0.009-0.002-0.009-0.002l-13.667,5.023c0.491,2.268,0.374,4.563-0.264,6.687l15.681,7.299
		C70.299,162.471,68.555,154.924,66.518,150.621z"/>
	<path fill="#36BA98" d="M46.828,184.935l-5.029-13.67c-2.268,0.491-4.561,0.375-6.685-0.262l-7.294,15.687
		c6.799,2.751,14.345,1.003,18.647-1.036c0.003-0.001,0.006-0.002,0.009-0.003c0.005-0.002,0.009-0.006,0.014-0.008
		c0.012-0.005,0.026-0.012,0.039-0.018c0.003-0.002,0.007-0.008,0.01-0.01c0.235-0.137,0.35-0.41,0.286-0.673
		C46.827,184.942,46.828,184.935,46.828,184.935z"/>
	<path fill="#36BA98" d="M27.125,164.504l-16.248,5.937c2.864,6.754,9.437,10.852,13.92,12.452c0.003,0.001,0.006,0.003,0.009,0.004
		c0.005,0.002,0.011,0.003,0.016,0.004c0.014,0.006,0.027,0.011,0.041,0.016c0.003,0.001,0.01,0,0.014,0
		c0.263,0.069,0.538-0.042,0.677-0.273c0.001-0.002,0.008-0.005,0.008-0.005l6.105-13.222
		C29.804,168.216,28.226,166.548,27.125,164.504z"/>
	<path fill="#36BA98" d="M11.43,165.627c0.002,0.005,0.006,0.011,0.009,0.017c0.005,0.012,0.011,0.024,0.017,0.036
		c0.002,0.004,0.007,0.008,0.01,0.011c0.137,0.235,0.411,0.351,0.673,0.284c0.002,0.002,0.008,0.003,0.008,0.003l13.664-5.034
		c-0.492-2.269-0.376-4.562,0.259-6.687l-15.686-7.287c-2.748,6.8-0.998,14.346,1.042,18.646
		C11.428,165.62,11.428,165.624,11.43,165.627z"/>
	<path fill="#36BA98" d="M14.432,144.361c0.001,0.001,0.004,0.007,0.004,0.007l13.476,6.284c1.2-1.863,2.886-3.319,4.929-4.419
		l-6.214-16.555c-6.752,2.868-10.848,9.441-12.445,13.928c-0.001,0.002-0.003,0.005-0.004,0.007
		c-0.002,0.004-0.002,0.009-0.004,0.015c-0.005,0.013-0.011,0.028-0.016,0.041c-0.001,0.005,0,0.012-0.001,0.017
		C14.088,143.948,14.2,144.221,14.432,144.361z"/>
	<path fill="#36BA98" d="M63.498,171.533c-0.001-0.002-0.005-0.008-0.005-0.008l-13.217-6.11c-1.202,1.863-2.871,3.438-4.916,4.539
		l5.931,16.252c6.753-2.861,10.854-9.433,12.456-13.916c0.001-0.003,0.003-0.006,0.004-0.009c0.002-0.005,0.003-0.012,0.005-0.017
		c0.005-0.014,0.01-0.026,0.015-0.04c0.001-0.004,0-0.01,0.001-0.014C63.84,171.947,63.729,171.672,63.498,171.533z"/>
</g>
</svg>
