<?xml version="1.0" encoding="utf-8"?>
<!-- Generator: Adobe Illustrator 20.1.0, SVG Export Plug-In . SVG Version: 6.00 Build 0)  -->
<svg version="1.1" id="plus" xmlns="http://www.w3.org/2000/svg" xmlns:xlink="http://www.w3.org/1999/xlink" x="0px" y="0px"
	 viewBox="0 0 81.4 60" style="enable-background:new 0 0 81.4 60;" xml:space="preserve">
<style type="text/css">
	.st0{fill:#34AB8F;}
</style>
<g>
	<path class="st0" d="M29.8,35.9c-1.2-1.5-2.3-3.2-3.2-5c-1.2-2.5-2-5-2.4-7.4c-0.4-2.7-0.4-5.5,0.2-8.1c0.7-3.2,2.1-5.9,4.2-8
		c0.4-0.4,0.9-0.9,1.4-1.3c-1.3-3-3.7-5-7.3-5.8C22.4,0.2,22,0.1,21.6,0c-0.4,0-0.8,0-1.2,0c0,0,0,0,0,0c-0.4,0-0.8,0-1.2,0
		c-0.4,0.1-0.8,0.2-1.3,0.3c-4.4,1-7.1,3.8-8.1,8.1c-0.9,4-0.1,7.8,1.6,11.4c0.8,1.6,1.8,3.2,3,4.5c1.4,1.5,0.8,4.1-1.1,4.9
		c-2.4,0.9-4.7,1.9-6.9,3.2c-1.7,1-3.4,2.1-4.7,3.6c-0.9,0.9-1.5,2-1.7,3.2c0,0.7,0,1.4,0,2.2c0,0,0.1,0,0.1,0.1
		C0.3,43,1.3,44,2.6,44.8c1.2,0.7,2.6,1.2,3.9,1.5c2.5,0.6,5.1,0.9,7.7,1.1c0.5-1.2,1.3-2.4,2.3-3.4c2.1-2.2,4.4-3.7,6.3-4.7
		C24.9,38,27.2,37,29.8,35.9z"/>
	<path class="st0" d="M56,43c-2.4-1.4-5-2.5-7.7-3.5c-2.2-0.8-2.8-3.7-1.3-5.4c1.4-1.5,2.5-3.2,3.4-5c1.9-4.1,2.8-8.3,1.8-12.7
		c-1.1-4.8-4.1-7.9-9-9c-0.5-0.1-0.9-0.2-1.4-0.3c-0.5,0-0.9,0-1.3,0c0,0,0,0,0,0c-0.5,0-0.9,0-1.3,0c-0.5,0.1-0.9,0.2-1.4,0.3
		c-4.9,1.1-7.9,4.2-9,9c-1,4.4-0.1,8.7,1.8,12.7c0.9,1.8,2,3.5,3.4,5c1.6,1.7,0.9,4.6-1.3,5.4c-2.6,1-5.2,2.1-7.7,3.5
		c-1.9,1.1-3.7,2.3-5.3,4c-1,1-1.6,2.2-1.9,3.6c0,0.8,0,1.6,0,2.4c0,0,0.1,0,0.1,0.1c0.2,1.8,1.4,3,2.9,3.9c1.4,0.8,2.9,1.3,4.4,1.7
		c3.8,1,7.7,1.3,11.7,1.4c0.6,0,3.1,0,3.7,0.1c0,0,0,0,0,0c0,0,0,0,0,0c0.6,0,3.1,0,3.7-0.1c3.9-0.1,7.8-0.4,11.7-1.4
		c1.5-0.4,3-0.9,4.4-1.7c1.5-0.9,2.7-2,2.9-3.9c0,0,0-0.1,0.1-0.1c0-0.8,0-1.6,0-2.4c-0.3-1.4-1-2.5-1.9-3.6
		C59.8,45.3,57.9,44.1,56,43z"/>
	<path class="st0" d="M79.7,35.9c-1.4-1.5-3-2.6-4.7-3.6c-2.2-1.3-4.5-2.3-6.9-3.2c-2-0.7-2.6-3.3-1.1-4.9c1.2-1.3,2.2-2.9,3-4.5
		c1.7-3.6,2.5-7.4,1.6-11.4c-1-4.3-3.7-7.1-8.1-8.1c-0.4-0.1-0.8-0.2-1.3-0.3c-0.4,0-0.8,0-1.2,0c0,0,0,0,0,0c-0.4,0-0.8,0-1.2,0
		c-0.4,0.1-0.8,0.2-1.3,0.3c-3.7,0.8-6.1,2.9-7.4,6c0.4,0.3,0.8,0.7,1.1,1c2.1,2.1,3.5,4.8,4.2,8c0.6,2.7,0.7,5.4,0.2,8.1
		c-0.4,2.4-1.2,4.9-2.4,7.4c-0.9,1.8-1.9,3.5-3.2,5c2.6,1,4.9,2.1,7,3.3c1.8,1.1,4.2,2.5,6.3,4.7c1,1.1,1.8,2.2,2.3,3.5
		c2.7-0.2,5.4-0.5,8-1.1c1.4-0.3,2.7-0.8,3.9-1.5c1.4-0.8,2.4-1.8,2.6-3.5c0,0,0,0,0.1-0.1c0-0.7,0-1.4,0-2.2
		C81.2,37.9,80.6,36.8,79.7,35.9z"/>
</g>
</svg>
