<?xml version="1.0" encoding="utf-8"?>
<!-- Generator: Adobe Illustrator 20.1.0, SVG Export Plug-In . SVG Version: 6.00 Build 0)  -->
<svg version="1.1" id="Layer_1" xmlns="http://www.w3.org/2000/svg" xmlns:xlink="http://www.w3.org/1999/xlink" x="0px" y="0px"
	 viewBox="0 0 218.8 220.2" style="enable-background:new 0 0 218.8 220.2;" xml:space="preserve">
<style type="text/css">
	.st0{fill:url(#SVGID_1_);}
	.st1{fill:url(#SVGID_2_);}
	.st2{fill:url(#SVGID_3_);}
	.st3{fill:url(#SVGID_4_);}
	.st4{fill:url(#SVGID_5_);}
	.st5{fill:url(#SVGID_6_);}
	.st6{fill:url(#SVGID_7_);}
	.st7{fill:url(#SVGID_8_);}
</style>
<g>
	<linearGradient id="SVGID_1_" gradientUnits="userSpaceOnUse" x1="114.623" y1="62.0024" x2="115.5205" y2="3.6539">
		<stop  offset="0" style="stop-color:#00AEEF"/>
		<stop  offset="1" style="stop-color:#0084B6"/>
	</linearGradient>
	<path class="st0" d="M80.8,12.9l18.3,49.9c8.3-1.8,16.6-1.3,24.4,1l26.6-57.2c-24.8-10-52.3-3.7-68,3.7c0,0,0,0,0,0c0,0,0,0-0.1,0
		c0,0-0.1,0-0.1,0.1c0,0,0,0,0,0C81,11,80.6,12,80.8,12.9C80.8,12.9,80.8,12.9,80.8,12.9z"/>
	<linearGradient id="SVGID_2_" gradientUnits="userSpaceOnUse" x1="144.0075" y1="79.011" x2="189.7894" y2="39.5126">
		<stop  offset="0" style="stop-color:#00AEEF"/>
		<stop  offset="1" style="stop-color:#0084B6"/>
	</linearGradient>
	<path class="st1" d="M152.6,87.5l59.3-21.6c-10.4-24.6-34.4-39.6-50.7-45.4c0,0,0,0,0,0c0,0,0,0-0.1,0c0,0-0.1,0-0.1-0.1
		c0,0,0,0-0.1,0c-1-0.3-2,0.2-2.5,1c0,0,0,0,0,0L136,69.6C142.8,74,148.6,80,152.6,87.5z"/>
	<linearGradient id="SVGID_3_" gradientUnits="userSpaceOnUse" x1="156.4063" y1="116.7861" x2="218.7629" y2="116.7861">
		<stop  offset="0" style="stop-color:#00AEEF"/>
		<stop  offset="1" style="stop-color:#0084B6"/>
	</linearGradient>
	<path class="st2" d="M209.8,83.5C209.8,83.5,209.8,83.5,209.8,83.5c0-0.1,0-0.1,0-0.1c0,0,0-0.1-0.1-0.1c0,0,0,0,0,0
		c-0.5-0.9-1.5-1.3-2.5-1c0,0,0,0,0,0l-49.8,18.3c1.8,8.3,1.4,16.6-1,24.4l57.2,26.6C223.6,126.7,217.3,99.2,209.8,83.5z"/>
	<linearGradient id="SVGID_4_" gradientUnits="userSpaceOnUse" x1="104.2114" y1="158.8765" x2="103.3139" y2="219.0237">
		<stop  offset="0" style="stop-color:#00AEEF"/>
		<stop  offset="1" style="stop-color:#0084B6"/>
	</linearGradient>
	<path class="st3" d="M138,208.6l-18.3-49.8c-8.3,1.8-16.6,1.4-24.4-1L68.7,215c24.8,10,52.3,3.7,68-3.8c0,0,0,0,0,0c0,0,0,0,0.1,0
		c0,0,0.1,0,0.1-0.1c0,0,0,0,0,0C137.8,210.6,138.3,209.6,138,208.6C138,208.6,138,208.6,138,208.6z"/>
	<linearGradient id="SVGID_5_" gradientUnits="userSpaceOnUse" x1="71.1096" y1="140.6437" x2="29.8165" y2="181.9362">
		<stop  offset="0" style="stop-color:#00AEEF"/>
		<stop  offset="1" style="stop-color:#0084B6"/>
	</linearGradient>
	<path class="st4" d="M66.2,134.1L7,155.7c10.4,24.6,34.4,39.6,50.8,45.4c0,0,0,0,0,0c0,0,0,0,0.1,0c0,0,0.1,0,0.1,0.1
		c0,0,0,0,0.1,0c1,0.3,2-0.2,2.5-1c0,0,0,0,0,0L82.8,152C76,147.6,70.2,141.5,66.2,134.1z"/>
	<linearGradient id="SVGID_6_" gradientUnits="userSpaceOnUse" x1="60.037" y1="103.2989" x2="-0.1079" y2="105.0944">
		<stop  offset="0" style="stop-color:#00AEEF"/>
		<stop  offset="1" style="stop-color:#0084B6"/>
	</linearGradient>
	<path class="st5" d="M62.4,96.7L5.2,70.2c-10,24.8-3.6,52.3,3.8,68c0,0,0,0,0,0c0,0,0,0,0,0.1c0,0,0,0.1,0.1,0.1c0,0,0,0,0,0
		c0.5,0.9,1.5,1.3,2.5,1c0,0,0,0,0,0l49.8-18.4C59.6,112.8,60,104.5,62.4,96.7z"/>
	<linearGradient id="SVGID_7_" gradientUnits="userSpaceOnUse" x1="79.0606" y1="71.671" x2="37.7008" y2="29.3916">
		<stop  offset="0" style="stop-color:#00AEEF"/>
		<stop  offset="1" style="stop-color:#0084B6"/>
	</linearGradient>
	<path class="st6" d="M87,67.5L64.4,7.1C39.8,17.6,24.8,41.5,19,57.9c0,0,0,0,0,0c0,0,0,0,0,0.1c0,0,0,0.1-0.1,0.2c0,0,0,0,0,0.1
		c-0.3,1,0.2,2,1,2.5c0,0,0,0,0,0l49.1,22.9C73.4,76.8,79.6,71.5,87,67.5z"/>
	<linearGradient id="SVGID_8_" gradientUnits="userSpaceOnUse" x1="138.3355" y1="150.5518" x2="182.3225" y2="191.8456">
		<stop  offset="0" style="stop-color:#00AEEF"/>
		<stop  offset="1" style="stop-color:#0084B6"/>
	</linearGradient>
	<path class="st7" d="M198.8,159.7C198.8,159.7,198.8,159.7,198.8,159.7l-48.2-22.3c-4.4,6.8-10.5,12.5-17.9,16.5l21.6,59.3
		c24.6-10.4,39.6-34.4,45.4-50.7c0,0,0,0,0,0c0,0,0,0,0-0.1c0,0,0-0.1,0.1-0.1c0,0,0,0,0-0.1C200.1,161.2,199.7,160.2,198.8,159.7z"
		/>
</g>
</svg>
