<?xml version="1.0" encoding="utf-8"?>
<!-- Generator: Adobe Illustrator 20.1.0, SVG Export Plug-In . SVG Version: 6.00 Build 0)  -->
<svg version="1.1" id="Layer_1" xmlns="http://www.w3.org/2000/svg" xmlns:xlink="http://www.w3.org/1999/xlink" x="0px" y="0px"
	 viewBox="-7.4 64.4 610.5 706.5" style="enable-background:new -7.4 64.4 610.5 706.5;" xml:space="preserve">
<style type="text/css">
	.st0{fill:#4a5c68;}
</style>
<g>
	<path class="st0" d="M228.4,767C101.1,767-2.5,663.4-2.5,536.1c0-84.6,46.6-162.9,121.6-204.8l-11.5-113.7c-16.8-16.1-26-37.6-26-60.8
		c0-46.6,37.9-84.5,84.5-84.6c46.6,0,84.5,37.9,84.5,84.5c0,20.2-7.2,39.7-20.4,55c-12.5,14.5-29.5,24.4-48.1,27.9l5.2,52.3h136.6
		c1.4,0,2.5,1.1,2.5,2.5v63.2c0,1.4-1.1,2.5-2.5,2.5H194l5.6,56h218.6c1,0,1.9,0.6,2.3,1.4l85.3,182l64.6-23.4
		c0.3-0.1,0.6-0.2,0.9-0.2c1,0,1.9,0.6,2.3,1.5l23,50.6c0.3,0.6,0.3,1.3,0,2c-0.3,0.6-0.8,1.1-1.4,1.4l-126.5,50.6
		c-0.3,0.1-0.6,0.2-0.9,0.2c-0.9,0-1.8-0.5-2.3-1.4l-24.4-52c-18,39.3-46.5,72.9-82.9,97.6C319.3,753,274.4,767,228.4,767z
		 M126.1,400.1c-20.2,15.7-36.9,35.8-48.4,58.3c-12.3,24-18.8,50.9-18.8,77.7c0,93.5,76,169.5,169.5,169.5
		c44.2,0,86.5-17.3,119.1-48.8c32.4-31.2,51-72.3,52.4-115.5l-29.3-62.5H136.3c-1.3,0-2.4-1-2.5-2.2L126.1,400.1z"/>
	<path class="st0" d="M166.1,74.7c45.3,0,82,36.7,82,82c0,40.8-29.8,74.5-68.7,80.8l5.6,56.9h138.9v63.2H191.3l6.1,61h220.9l86.3,184.1
		l66.7-24.1l23,50.6l-126.5,50.6L441,623c-35.3,82.2-118.4,141.5-212.6,141.5C102.4,764.5,0,662,0,536.1
		C0,451.5,46.6,374,121.8,332.7L110,216.4c-15.9-15-25.9-36.1-25.9-59.7C84.1,111.5,120.8,74.7,166.1,74.7 M228.4,708.1
		c92.9,0,171.4-76.2,174-167.4l-30.2-64.5H136.3l-8.2-80.9c-44.8,33.2-71.7,84.9-71.7,140.7C56.4,630.9,133.5,708.1,228.4,708.1
		 M166.1,69.7C166.1,69.7,166.1,69.7,166.1,69.7c-48,0-87,39.1-87,87.1c0,23.6,9.3,45.5,26.1,62l11.3,111.1
		c-36.4,20.6-66.8,50.2-88.1,85.6C6.6,452-5,493.7-5,536.1c0,128.7,104.7,233.4,233.4,233.4c46.5,0,91.9-14.1,131.2-40.8
		c18.9-12.8,35.8-28.2,50.4-45.7c12.3-14.8,22.8-31,31.1-48.1l22.1,47.2c0.8,1.8,2.6,2.9,4.5,2.9c0.6,0,1.2-0.1,1.9-0.4l126.5-50.6
		c1.3-0.5,2.3-1.5,2.8-2.8c0.5-1.3,0.5-2.7-0.1-3.9l-23-50.6c-0.8-1.8-2.6-2.9-4.6-2.9c-0.6,0-1.1,0.1-1.7,0.3l-62.4,22.6l-84.4-180
		c-0.8-1.8-2.6-2.9-4.5-2.9H201.8l-5.1-51h127.1c2.8,0,5-2.2,5-5v-63.2c0-2.8-2.2-5-5-5H189.6l-4.7-47.9c18.3-4,35-14,47.3-28.3
		c13.5-15.7,21-35.8,21-56.6C253.1,108.8,214.1,69.7,166.1,69.7L166.1,69.7z M228.4,703.1c-92.1,0-167-74.9-167-167
		c0-26.5,6.4-52.9,18.5-76.6c10.7-20.8,25.8-39.6,44.2-54.6l7.3,71.9c0.3,2.6,2.4,4.5,5,4.5H369l28.4,60.5
		c-0.8,21.2-5.7,41.9-14.7,61.5c-8.9,19.3-21.3,36.7-36.9,51.7c-15.6,15-33.5,26.9-53.3,35.1C271.9,698.7,250.4,703.1,228.4,703.1
		L228.4,703.1z"/>
</g>
</svg>
