<?xml version="1.0" encoding="utf-8"?>
<!-- Generator: Adobe Illustrator 20.1.0, SVG Export Plug-In . SVG Version: 6.00 Build 0)  -->
<svg version="1.1" id="turbilet" xmlns="http://www.w3.org/2000/svg" xmlns:xlink="http://www.w3.org/1999/xlink" x="0px" y="0px"
	 viewBox="0 0 28 28" style="enable-background:new 0 0 28 28;" xml:space="preserve">
<style type="text/css">
	.st0{fill:#4a5c68;}
</style>
<path class="st0" d="M27.4,24.1l-6.7-6.7c-0.1-0.1-0.2-0.1-0.2-0.2c1.1-1.7,1.8-3.8,1.8-6C22.2,5,17.2,0,11.1,0C5,0,0,5,0,11.1
	c0,6.1,5,11.1,11.1,11.1c2.2,0,4.3-0.7,6-1.8c0.1,0.1,0.1,0.2,0.2,0.2l6.7,6.7c0.5,0.5,1.1,0.7,1.7,0.7c0.6,0,1.2-0.2,1.7-0.7
	C28.3,26.5,28.3,25,27.4,24.1z M11.1,18.7c-4.2,0-7.6-3.4-7.6-7.6c0-4.2,3.4-7.6,7.6-7.6c4.2,0,7.6,3.4,7.6,7.6
	C18.7,15.3,15.3,18.7,11.1,18.7z"/>
</svg>
